<mxfile host="app.diagrams.net" modified="2022-04-29T21:49:18.420Z" agent="5.0 (Macintosh; Intel Mac OS X 10_15_6) AppleWebKit/605.1.15 (KHTML, like Gecko) Version/15.0 Safari/605.1.15" etag="roboYKkZxVri9oUwm_wp" version="17.5.0" type="github" pages="3">
  <diagram id="6RyMXI0ngkW2XiBbKgvb" name="Page-1">
    <mxGraphModel dx="868" dy="732" grid="1" gridSize="10" guides="1" tooltips="1" connect="1" arrows="1" fold="1" page="1" pageScale="1" pageWidth="850" pageHeight="1100" math="0" shadow="0">
      <root>
        <mxCell id="0" />
        <mxCell id="1" parent="0" />
        <mxCell id="u4VShirlnvGPkURRjGhW-10" value="" style="edgeStyle=orthogonalEdgeStyle;rounded=0;orthogonalLoop=1;jettySize=auto;html=1;startArrow=none;" parent="1" source="u4VShirlnvGPkURRjGhW-17" edge="1">
          <mxGeometry relative="1" as="geometry">
            <mxPoint x="137" y="101" as="targetPoint" />
          </mxGeometry>
        </mxCell>
        <mxCell id="u4VShirlnvGPkURRjGhW-1" value="New meToken&lt;br&gt;Creator" style="shape=umlActor;verticalLabelPosition=bottom;verticalAlign=top;html=1;outlineConnect=0;" parent="1" vertex="1">
          <mxGeometry x="37" y="71" width="30" height="60" as="geometry" />
        </mxCell>
        <mxCell id="u4VShirlnvGPkURRjGhW-26" value="" style="edgeStyle=orthogonalEdgeStyle;rounded=0;orthogonalLoop=1;jettySize=auto;html=1;entryX=0;entryY=0.5;entryDx=0;entryDy=0;" parent="1" edge="1">
          <mxGeometry relative="1" as="geometry">
            <mxPoint x="337" y="85.99999999999994" as="sourcePoint" />
            <mxPoint x="417" y="223.5" as="targetPoint" />
            <Array as="points">
              <mxPoint x="357" y="86" />
              <mxPoint x="357" y="224" />
            </Array>
          </mxGeometry>
        </mxCell>
        <mxCell id="u4VShirlnvGPkURRjGhW-2" value="MeTokenRegistryFacet.sol" style="swimlane;" parent="1" vertex="1">
          <mxGeometry x="137" y="26" width="200" height="130" as="geometry" />
        </mxCell>
        <mxCell id="u4VShirlnvGPkURRjGhW-3" value="subscribe(&lt;br&gt;&lt;div&gt;&amp;nbsp; &amp;nbsp; string name,&lt;/div&gt;&lt;div&gt;&amp;nbsp; &amp;nbsp; string symbol,&lt;/div&gt;&lt;div&gt;&amp;nbsp; &amp;nbsp; uint256 hubId,&lt;/div&gt;&lt;div&gt;&amp;nbsp; &amp;nbsp; uint256 assetsDeposited&lt;/div&gt;&lt;div&gt;)&lt;/div&gt;" style="text;html=1;align=left;verticalAlign=middle;resizable=0;points=[];autosize=1;strokeColor=none;fillColor=none;" parent="u4VShirlnvGPkURRjGhW-2" vertex="1">
          <mxGeometry x="10" y="30" width="160" height="90" as="geometry" />
        </mxCell>
        <mxCell id="u4VShirlnvGPkURRjGhW-13" value="" style="edgeStyle=orthogonalEdgeStyle;rounded=0;orthogonalLoop=1;jettySize=auto;html=1;entryX=0.5;entryY=0;entryDx=0;entryDy=0;" parent="1" source="u4VShirlnvGPkURRjGhW-4" target="u4VShirlnvGPkURRjGhW-6" edge="1">
          <mxGeometry relative="1" as="geometry">
            <Array as="points">
              <mxPoint x="502" y="131" />
              <mxPoint x="502" y="131" />
            </Array>
          </mxGeometry>
        </mxCell>
        <mxCell id="u4VShirlnvGPkURRjGhW-4" value="MeTokenFactory.sol" style="swimlane;" parent="1" vertex="1">
          <mxGeometry x="417" y="26" width="170" height="95" as="geometry" />
        </mxCell>
        <mxCell id="u4VShirlnvGPkURRjGhW-5" value="create(&lt;br&gt;&lt;div&gt;&amp;nbsp; &amp;nbsp; string name,&lt;/div&gt;&lt;div&gt;&amp;nbsp; &amp;nbsp; string symbol&lt;/div&gt;&lt;div&gt;)&lt;/div&gt;" style="text;html=1;align=left;verticalAlign=middle;resizable=0;points=[];autosize=1;strokeColor=none;fillColor=none;" parent="u4VShirlnvGPkURRjGhW-4" vertex="1">
          <mxGeometry x="10" y="30" width="100" height="60" as="geometry" />
        </mxCell>
        <mxCell id="u4VShirlnvGPkURRjGhW-16" value="" style="edgeStyle=orthogonalEdgeStyle;rounded=0;orthogonalLoop=1;jettySize=auto;html=1;" parent="1" source="u4VShirlnvGPkURRjGhW-6" edge="1">
          <mxGeometry relative="1" as="geometry">
            <mxPoint x="657" y="218" as="targetPoint" />
          </mxGeometry>
        </mxCell>
        <mxCell id="u4VShirlnvGPkURRjGhW-6" value="MeToken.sol" style="swimlane;" parent="1" vertex="1">
          <mxGeometry x="417" y="171" width="170" height="95" as="geometry" />
        </mxCell>
        <mxCell id="u4VShirlnvGPkURRjGhW-7" value="mint(&lt;br&gt;&lt;div&gt;&amp;nbsp; &amp;nbsp; uint256 assetsDeposited,&lt;/div&gt;&lt;div&gt;&amp;nbsp; &amp;nbsp; address recipient&lt;/div&gt;&lt;div&gt;)&lt;/div&gt;" style="text;html=1;align=left;verticalAlign=middle;resizable=0;points=[];autosize=1;strokeColor=none;fillColor=none;" parent="u4VShirlnvGPkURRjGhW-6" vertex="1">
          <mxGeometry x="10" y="30" width="160" height="60" as="geometry" />
        </mxCell>
        <mxCell id="u4VShirlnvGPkURRjGhW-8" value="FoundryFacet.sol" style="swimlane;" parent="1" vertex="1">
          <mxGeometry x="657" y="171" width="170" height="120" as="geometry" />
        </mxCell>
        <mxCell id="u4VShirlnvGPkURRjGhW-9" value="mint(&lt;br&gt;&lt;div&gt;&amp;nbsp; &amp;nbsp; address meToken,&lt;/div&gt;&lt;div&gt;&amp;nbsp; &amp;nbsp; uint256 assetsDeposited,&lt;/div&gt;&lt;div&gt;&amp;nbsp; &amp;nbsp; address recipient&lt;/div&gt;&lt;div&gt;)&lt;/div&gt;" style="text;html=1;align=left;verticalAlign=middle;resizable=0;points=[];autosize=1;strokeColor=none;fillColor=none;" parent="u4VShirlnvGPkURRjGhW-8" vertex="1">
          <mxGeometry x="10" y="29" width="160" height="80" as="geometry" />
        </mxCell>
        <mxCell id="u4VShirlnvGPkURRjGhW-11" value="" style="edgeStyle=orthogonalEdgeStyle;rounded=0;orthogonalLoop=1;jettySize=auto;html=1;startArrow=none;" parent="1" source="u4VShirlnvGPkURRjGhW-19" edge="1">
          <mxGeometry relative="1" as="geometry">
            <mxPoint x="337" y="86" as="sourcePoint" />
            <mxPoint x="417" y="86" as="targetPoint" />
          </mxGeometry>
        </mxCell>
        <mxCell id="u4VShirlnvGPkURRjGhW-17" value="1" style="ellipse;whiteSpace=wrap;html=1;" parent="1" vertex="1">
          <mxGeometry x="87" y="86" width="30" height="30" as="geometry" />
        </mxCell>
        <mxCell id="u4VShirlnvGPkURRjGhW-18" value="" style="edgeStyle=orthogonalEdgeStyle;rounded=0;orthogonalLoop=1;jettySize=auto;html=1;endArrow=none;" parent="1" source="u4VShirlnvGPkURRjGhW-1" target="u4VShirlnvGPkURRjGhW-17" edge="1">
          <mxGeometry relative="1" as="geometry">
            <mxPoint x="77" y="101" as="sourcePoint" />
            <mxPoint x="137" y="101" as="targetPoint" />
          </mxGeometry>
        </mxCell>
        <mxCell id="u4VShirlnvGPkURRjGhW-19" value="2" style="ellipse;whiteSpace=wrap;html=1;" parent="1" vertex="1">
          <mxGeometry x="367" y="71" width="30" height="30" as="geometry" />
        </mxCell>
        <mxCell id="u4VShirlnvGPkURRjGhW-20" value="" style="edgeStyle=orthogonalEdgeStyle;rounded=0;orthogonalLoop=1;jettySize=auto;html=1;endArrow=none;" parent="1" target="u4VShirlnvGPkURRjGhW-19" edge="1">
          <mxGeometry relative="1" as="geometry">
            <mxPoint x="337" y="86" as="sourcePoint" />
            <mxPoint x="417" y="86" as="targetPoint" />
          </mxGeometry>
        </mxCell>
        <mxCell id="u4VShirlnvGPkURRjGhW-21" value="4" style="ellipse;whiteSpace=wrap;html=1;" parent="1" vertex="1">
          <mxGeometry x="367" y="206" width="30" height="30" as="geometry" />
        </mxCell>
        <mxCell id="u4VShirlnvGPkURRjGhW-27" value="3" style="ellipse;whiteSpace=wrap;html=1;" parent="1" vertex="1">
          <mxGeometry x="487" y="128" width="30" height="30" as="geometry" />
        </mxCell>
        <mxCell id="u4VShirlnvGPkURRjGhW-29" value="5" style="ellipse;whiteSpace=wrap;html=1;" parent="1" vertex="1">
          <mxGeometry x="604" y="203.5" width="30" height="30" as="geometry" />
        </mxCell>
        <mxCell id="jTpOxuHRB69fMpJ3lM98-2" value="&lt;font color=&quot;#4d4d4d&quot;&gt;&lt;i&gt;create2&lt;/i&gt;&lt;/font&gt;" style="text;html=1;strokeColor=none;fillColor=none;align=left;verticalAlign=middle;whiteSpace=wrap;rounded=0;" parent="1" vertex="1">
          <mxGeometry x="523" y="128" width="60" height="30" as="geometry" />
        </mxCell>
      </root>
    </mxGraphModel>
  </diagram>
  <diagram id="Uv3-o5K4d4-d0D5d4-9U" name="Page-2">
    <mxGraphModel dx="868" dy="732" grid="1" gridSize="10" guides="1" tooltips="1" connect="1" arrows="1" fold="1" page="1" pageScale="1" pageWidth="850" pageHeight="1100" math="0" shadow="0">
      <root>
        <mxCell id="0" />
        <mxCell id="1" parent="0" />
        <mxCell id="RtSUmUaA_4XAMTTpwhXJ-1" value="" style="edgeStyle=orthogonalEdgeStyle;rounded=0;orthogonalLoop=1;jettySize=auto;html=1;fontColor=#4D4D4D;" parent="1" source="RtSUmUaA_4XAMTTpwhXJ-2" edge="1">
          <mxGeometry relative="1" as="geometry">
            <mxPoint x="108" y="93" as="targetPoint" />
          </mxGeometry>
        </mxCell>
        <mxCell id="RtSUmUaA_4XAMTTpwhXJ-2" value="meToken&lt;br&gt;Investor" style="shape=umlActor;verticalLabelPosition=bottom;verticalAlign=top;html=1;outlineConnect=0;" parent="1" vertex="1">
          <mxGeometry x="32" y="63" width="30" height="60" as="geometry" />
        </mxCell>
        <mxCell id="RtSUmUaA_4XAMTTpwhXJ-30" value="" style="edgeStyle=orthogonalEdgeStyle;rounded=0;orthogonalLoop=1;jettySize=auto;html=1;fontColor=#4D4D4D;entryX=0.5;entryY=0;entryDx=0;entryDy=0;" parent="1" source="RtSUmUaA_4XAMTTpwhXJ-3" target="RtSUmUaA_4XAMTTpwhXJ-5" edge="1">
          <mxGeometry relative="1" as="geometry" />
        </mxCell>
        <mxCell id="RtSUmUaA_4XAMTTpwhXJ-3" value="FoundryFacet.sol" style="swimlane;" parent="1" vertex="1">
          <mxGeometry x="109" y="25" width="170" height="120" as="geometry" />
        </mxCell>
        <mxCell id="RtSUmUaA_4XAMTTpwhXJ-4" value="mint(&lt;br&gt;&lt;div&gt;&amp;nbsp; &amp;nbsp; address meToken,&lt;/div&gt;&lt;div&gt;&amp;nbsp; &amp;nbsp; uint256 assetsDeposited,&lt;/div&gt;&lt;div&gt;&amp;nbsp; &amp;nbsp; address recipient&lt;/div&gt;&lt;div&gt;)&lt;/div&gt;" style="text;html=1;align=left;verticalAlign=middle;resizable=0;points=[];autosize=1;strokeColor=none;fillColor=none;" parent="RtSUmUaA_4XAMTTpwhXJ-3" vertex="1">
          <mxGeometry x="10" y="29" width="160" height="80" as="geometry" />
        </mxCell>
        <mxCell id="RtSUmUaA_4XAMTTpwhXJ-31" value="" style="edgeStyle=orthogonalEdgeStyle;rounded=0;orthogonalLoop=1;jettySize=auto;html=1;fontColor=#4D4D4D;entryX=0;entryY=0.5;entryDx=0;entryDy=0;" parent="1" source="RtSUmUaA_4XAMTTpwhXJ-5" target="RtSUmUaA_4XAMTTpwhXJ-7" edge="1">
          <mxGeometry relative="1" as="geometry" />
        </mxCell>
        <mxCell id="RtSUmUaA_4XAMTTpwhXJ-5" value="FoundryFacet.sol" style="swimlane;" parent="1" vertex="1">
          <mxGeometry x="109" y="175" width="170" height="100" as="geometry" />
        </mxCell>
        <mxCell id="RtSUmUaA_4XAMTTpwhXJ-6" value="_handleMint(&lt;br&gt;&lt;div&gt;&amp;nbsp; &amp;nbsp; address meToken,&lt;/div&gt;&lt;div&gt;&amp;nbsp; &amp;nbsp; uint256 assetsDeposited,&lt;/div&gt;&lt;div&gt;)&lt;/div&gt;" style="text;html=1;align=left;verticalAlign=middle;resizable=0;points=[];autosize=1;strokeColor=none;fillColor=none;" parent="RtSUmUaA_4XAMTTpwhXJ-5" vertex="1">
          <mxGeometry x="10" y="29" width="160" height="60" as="geometry" />
        </mxCell>
        <mxCell id="RtSUmUaA_4XAMTTpwhXJ-33" value="" style="edgeStyle=orthogonalEdgeStyle;rounded=0;orthogonalLoop=1;jettySize=auto;html=1;fontColor=#4D4D4D;entryX=0;entryY=0.5;entryDx=0;entryDy=0;" parent="1" source="RtSUmUaA_4XAMTTpwhXJ-7" target="RtSUmUaA_4XAMTTpwhXJ-9" edge="1">
          <mxGeometry relative="1" as="geometry" />
        </mxCell>
        <mxCell id="RtSUmUaA_4XAMTTpwhXJ-35" value="" style="edgeStyle=orthogonalEdgeStyle;rounded=0;orthogonalLoop=1;jettySize=auto;html=1;fontColor=#4D4D4D;" parent="1" source="RtSUmUaA_4XAMTTpwhXJ-7" target="RtSUmUaA_4XAMTTpwhXJ-18" edge="1">
          <mxGeometry relative="1" as="geometry" />
        </mxCell>
        <mxCell id="RtSUmUaA_4XAMTTpwhXJ-7" value="&lt;font color=&quot;#000000&quot;&gt;hub done updating?&lt;/font&gt;" style="rhombus;whiteSpace=wrap;html=1;fontColor=#4D4D4D;" parent="1" vertex="1">
          <mxGeometry x="303" y="185" width="80" height="80" as="geometry" />
        </mxCell>
        <mxCell id="RtSUmUaA_4XAMTTpwhXJ-34" value="" style="edgeStyle=orthogonalEdgeStyle;rounded=0;orthogonalLoop=1;jettySize=auto;html=1;fontColor=#4D4D4D;exitX=1;exitY=0.5;exitDx=0;exitDy=0;" parent="1" source="RtSUmUaA_4XAMTTpwhXJ-9" edge="1">
          <mxGeometry relative="1" as="geometry">
            <mxPoint x="446" y="225" as="targetPoint" />
            <mxPoint x="431.9998846593028" y="225.0588235294117" as="sourcePoint" />
          </mxGeometry>
        </mxCell>
        <mxCell id="RtSUmUaA_4XAMTTpwhXJ-9" value="Y" style="ellipse;whiteSpace=wrap;html=1;fontColor=#4D4D4D;" parent="1" vertex="1">
          <mxGeometry x="394" y="210" width="30" height="30" as="geometry" />
        </mxCell>
        <mxCell id="RtSUmUaA_4XAMTTpwhXJ-40" value="" style="edgeStyle=orthogonalEdgeStyle;rounded=0;orthogonalLoop=1;jettySize=auto;html=1;fontFamily=Helvetica;fontSize=12;fontColor=#4D4D4D;" parent="1" source="RtSUmUaA_4XAMTTpwhXJ-10" target="RtSUmUaA_4XAMTTpwhXJ-21" edge="1">
          <mxGeometry relative="1" as="geometry" />
        </mxCell>
        <mxCell id="RtSUmUaA_4XAMTTpwhXJ-10" value="N" style="ellipse;whiteSpace=wrap;html=1;fontColor=#4D4D4D;" parent="1" vertex="1">
          <mxGeometry x="480" y="370" width="30" height="30" as="geometry" />
        </mxCell>
        <mxCell id="RtSUmUaA_4XAMTTpwhXJ-37" value="" style="edgeStyle=orthogonalEdgeStyle;rounded=0;orthogonalLoop=1;jettySize=auto;html=1;fontFamily=Helvetica;fontSize=12;fontColor=#4D4D4D;entryX=0;entryY=0.5;entryDx=0;entryDy=0;" parent="1" source="RtSUmUaA_4XAMTTpwhXJ-14" target="RtSUmUaA_4XAMTTpwhXJ-16" edge="1">
          <mxGeometry relative="1" as="geometry" />
        </mxCell>
        <mxCell id="RtSUmUaA_4XAMTTpwhXJ-39" value="" style="edgeStyle=orthogonalEdgeStyle;rounded=0;orthogonalLoop=1;jettySize=auto;html=1;fontFamily=Helvetica;fontSize=12;fontColor=#4D4D4D;" parent="1" source="RtSUmUaA_4XAMTTpwhXJ-14" target="RtSUmUaA_4XAMTTpwhXJ-10" edge="1">
          <mxGeometry relative="1" as="geometry" />
        </mxCell>
        <mxCell id="RtSUmUaA_4XAMTTpwhXJ-14" value="&lt;span style=&quot;background-color: rgb(255 , 255 , 255)&quot;&gt;&lt;font color=&quot;#000000&quot;&gt;meToken&lt;br&gt;done&lt;br&gt;resubscribing?&lt;/font&gt;&lt;/span&gt;" style="rhombus;whiteSpace=wrap;html=1;fontColor=#4D4D4D;" parent="1" vertex="1">
          <mxGeometry x="455" y="260" width="80" height="80" as="geometry" />
        </mxCell>
        <mxCell id="RtSUmUaA_4XAMTTpwhXJ-12" value="LibHub.sol" style="swimlane;labelBackgroundColor=none;" parent="1" vertex="1">
          <mxGeometry x="445" y="175" width="100" height="80" as="geometry" />
        </mxCell>
        <mxCell id="RtSUmUaA_4XAMTTpwhXJ-13" value="finishUpdate(&lt;br&gt;&lt;div&gt;&amp;nbsp; &amp;nbsp; uint256 id&lt;/div&gt;&lt;div&gt;)&lt;/div&gt;" style="text;html=1;align=left;verticalAlign=middle;resizable=0;points=[];autosize=1;strokeColor=none;fillColor=none;" parent="RtSUmUaA_4XAMTTpwhXJ-12" vertex="1">
          <mxGeometry x="10" y="25" width="90" height="50" as="geometry" />
        </mxCell>
        <mxCell id="RtSUmUaA_4XAMTTpwhXJ-38" value="" style="edgeStyle=orthogonalEdgeStyle;rounded=0;orthogonalLoop=1;jettySize=auto;html=1;fontFamily=Helvetica;fontSize=12;fontColor=#4D4D4D;exitX=1;exitY=0.5;exitDx=0;exitDy=0;" parent="1" source="RtSUmUaA_4XAMTTpwhXJ-16" edge="1">
          <mxGeometry relative="1" as="geometry">
            <mxPoint x="596" y="300" as="targetPoint" />
            <mxPoint x="585.9999542751932" y="300.03703703703707" as="sourcePoint" />
          </mxGeometry>
        </mxCell>
        <mxCell id="RtSUmUaA_4XAMTTpwhXJ-16" value="Y" style="ellipse;whiteSpace=wrap;html=1;fontColor=#4D4D4D;" parent="1" vertex="1">
          <mxGeometry x="548" y="285" width="30" height="30" as="geometry" />
        </mxCell>
        <mxCell id="RtSUmUaA_4XAMTTpwhXJ-36" value="" style="edgeStyle=orthogonalEdgeStyle;rounded=0;orthogonalLoop=1;jettySize=auto;html=1;fontFamily=Helvetica;fontSize=12;fontColor=#4D4D4D;" parent="1" source="RtSUmUaA_4XAMTTpwhXJ-18" target="RtSUmUaA_4XAMTTpwhXJ-14" edge="1">
          <mxGeometry relative="1" as="geometry" />
        </mxCell>
        <mxCell id="RtSUmUaA_4XAMTTpwhXJ-18" value="N" style="ellipse;whiteSpace=wrap;html=1;fontColor=#4D4D4D;" parent="1" vertex="1">
          <mxGeometry x="328" y="285" width="30" height="30" as="geometry" />
        </mxCell>
        <mxCell id="RtSUmUaA_4XAMTTpwhXJ-19" value="LibMeTokens.sol" style="swimlane;labelBackgroundColor=none;" parent="1" vertex="1">
          <mxGeometry x="598" y="260" width="132" height="80" as="geometry" />
        </mxCell>
        <mxCell id="RtSUmUaA_4XAMTTpwhXJ-20" value="finishResubscribe(&lt;br&gt;&lt;div&gt;&amp;nbsp; &amp;nbsp; address meToken&lt;/div&gt;&lt;div&gt;)&lt;/div&gt;" style="text;html=1;align=left;verticalAlign=middle;resizable=0;points=[];autosize=1;strokeColor=none;fillColor=none;labelBackgroundColor=none;" parent="RtSUmUaA_4XAMTTpwhXJ-19" vertex="1">
          <mxGeometry x="10" y="25" width="120" height="50" as="geometry" />
        </mxCell>
        <mxCell id="RtSUmUaA_4XAMTTpwhXJ-41" value="" style="edgeStyle=orthogonalEdgeStyle;rounded=0;orthogonalLoop=1;jettySize=auto;html=1;fontFamily=Helvetica;fontSize=12;fontColor=#4D4D4D;entryX=0;entryY=0.5;entryDx=0;entryDy=0;" parent="1" source="RtSUmUaA_4XAMTTpwhXJ-21" target="RtSUmUaA_4XAMTTpwhXJ-24" edge="1">
          <mxGeometry relative="1" as="geometry" />
        </mxCell>
        <mxCell id="0g4K0nFX8rP3SzHG0Zp5-3" value="" style="edgeStyle=orthogonalEdgeStyle;rounded=0;orthogonalLoop=1;jettySize=auto;html=1;fontFamily=Helvetica;fontSize=12;fontColor=#4D4D4D;" parent="1" source="RtSUmUaA_4XAMTTpwhXJ-21" target="RtSUmUaA_4XAMTTpwhXJ-22" edge="1">
          <mxGeometry relative="1" as="geometry" />
        </mxCell>
        <mxCell id="RtSUmUaA_4XAMTTpwhXJ-21" value="&lt;span style=&quot;background-color: rgb(255 , 255 , 255)&quot;&gt;&lt;font color=&quot;#000000&quot;&gt;meToken&lt;br&gt;currently&lt;br&gt;resubscribing?&lt;/font&gt;&lt;/span&gt;" style="rhombus;whiteSpace=wrap;html=1;fontColor=#4D4D4D;" parent="1" vertex="1">
          <mxGeometry x="623" y="345" width="80" height="80" as="geometry" />
        </mxCell>
        <mxCell id="RtSUmUaA_4XAMTTpwhXJ-42" value="" style="edgeStyle=orthogonalEdgeStyle;rounded=0;orthogonalLoop=1;jettySize=auto;html=1;fontFamily=Helvetica;fontSize=12;fontColor=#4D4D4D;" parent="1" edge="1">
          <mxGeometry relative="1" as="geometry">
            <mxPoint x="731.6885775404495" y="381" as="sourcePoint" />
            <mxPoint x="756" y="384" as="targetPoint" />
            <Array as="points">
              <mxPoint x="732" y="384" />
            </Array>
          </mxGeometry>
        </mxCell>
        <mxCell id="RtSUmUaA_4XAMTTpwhXJ-24" value="Y" style="ellipse;whiteSpace=wrap;html=1;fontColor=#4D4D4D;" parent="1" vertex="1">
          <mxGeometry x="713" y="370" width="30" height="30" as="geometry" />
        </mxCell>
        <mxCell id="-Vu_EtsaGJu-CdH1vXf4-3" value="" style="edgeStyle=orthogonalEdgeStyle;rounded=0;orthogonalLoop=1;jettySize=auto;html=1;fontFamily=Helvetica;fontSize=12;fontColor=#4D4D4D;" parent="1" source="RtSUmUaA_4XAMTTpwhXJ-25" edge="1">
          <mxGeometry relative="1" as="geometry">
            <mxPoint x="196" y="513" as="targetPoint" />
            <Array as="points">
              <mxPoint x="906" y="385" />
              <mxPoint x="906" y="483" />
              <mxPoint x="196" y="483" />
            </Array>
          </mxGeometry>
        </mxCell>
        <mxCell id="RtSUmUaA_4XAMTTpwhXJ-25" value="IMigration.sol" style="swimlane;" parent="1" vertex="1">
          <mxGeometry x="755" y="361" width="130" height="48" as="geometry" />
        </mxCell>
        <mxCell id="RtSUmUaA_4XAMTTpwhXJ-26" value="poke()" style="text;html=1;align=left;verticalAlign=middle;resizable=0;points=[];autosize=1;strokeColor=none;fillColor=none;" parent="RtSUmUaA_4XAMTTpwhXJ-25" vertex="1">
          <mxGeometry x="10" y="25" width="50" height="20" as="geometry" />
        </mxCell>
        <mxCell id="-Vu_EtsaGJu-CdH1vXf4-75" value="" style="edgeStyle=orthogonalEdgeStyle;rounded=0;orthogonalLoop=1;jettySize=auto;html=1;fontFamily=Helvetica;fontSize=12;fontColor=#4D4D4D;" parent="1" source="RtSUmUaA_4XAMTTpwhXJ-28" edge="1">
          <mxGeometry relative="1" as="geometry">
            <mxPoint x="316" y="563" as="targetPoint" />
          </mxGeometry>
        </mxCell>
        <mxCell id="RtSUmUaA_4XAMTTpwhXJ-28" value="FoundryFacet.sol" style="swimlane;" parent="1" vertex="1">
          <mxGeometry x="112" y="513" width="174" height="100" as="geometry" />
        </mxCell>
        <mxCell id="RtSUmUaA_4XAMTTpwhXJ-29" value="_calculateMeTokensMinted(&lt;br&gt;&lt;div&gt;&amp;nbsp; &amp;nbsp; address meToken,&lt;/div&gt;&lt;div&gt;&amp;nbsp; &amp;nbsp; uint256 assetsDeposited,&lt;/div&gt;&lt;div&gt;)&lt;/div&gt;" style="text;html=1;align=left;verticalAlign=middle;resizable=0;points=[];autosize=1;strokeColor=none;fillColor=none;" parent="RtSUmUaA_4XAMTTpwhXJ-28" vertex="1">
          <mxGeometry x="10" y="29" width="160" height="60" as="geometry" />
        </mxCell>
        <mxCell id="0g4K0nFX8rP3SzHG0Zp5-2" value="" style="edgeStyle=orthogonalEdgeStyle;rounded=0;orthogonalLoop=1;jettySize=auto;html=1;fontFamily=Helvetica;fontSize=12;fontColor=#4D4D4D;endArrow=none;entryX=0.5;entryY=1;entryDx=0;entryDy=0;" parent="1" source="RtSUmUaA_4XAMTTpwhXJ-20" target="RtSUmUaA_4XAMTTpwhXJ-22" edge="1">
          <mxGeometry relative="1" as="geometry">
            <mxPoint x="728" y="310" as="sourcePoint" />
            <mxPoint x="706" y="473" as="targetPoint" />
            <Array as="points">
              <mxPoint x="906" y="310" />
              <mxPoint x="906" y="483" />
              <mxPoint x="663" y="483" />
            </Array>
          </mxGeometry>
        </mxCell>
        <mxCell id="RtSUmUaA_4XAMTTpwhXJ-22" value="N" style="ellipse;whiteSpace=wrap;html=1;fontColor=#4D4D4D;" parent="1" vertex="1">
          <mxGeometry x="648" y="443" width="30" height="30" as="geometry" />
        </mxCell>
        <mxCell id="-Vu_EtsaGJu-CdH1vXf4-1" value="" style="edgeStyle=orthogonalEdgeStyle;rounded=0;orthogonalLoop=1;jettySize=auto;html=1;fontFamily=Helvetica;fontSize=12;fontColor=#4D4D4D;endArrow=none;entryX=0.5;entryY=1;entryDx=0;entryDy=0;" parent="1" source="RtSUmUaA_4XAMTTpwhXJ-13" target="RtSUmUaA_4XAMTTpwhXJ-22" edge="1">
          <mxGeometry relative="1" as="geometry">
            <mxPoint x="676" y="473" as="targetPoint" />
            <Array as="points">
              <mxPoint x="906" y="225" />
              <mxPoint x="906" y="483" />
              <mxPoint x="663" y="483" />
            </Array>
            <mxPoint x="545" y="225" as="sourcePoint" />
          </mxGeometry>
        </mxCell>
        <mxCell id="-Vu_EtsaGJu-CdH1vXf4-76" value="" style="edgeStyle=orthogonalEdgeStyle;rounded=0;orthogonalLoop=1;jettySize=auto;html=1;fontFamily=Helvetica;fontSize=12;fontColor=#4D4D4D;" parent="1" source="-Vu_EtsaGJu-CdH1vXf4-4" target="-Vu_EtsaGJu-CdH1vXf4-9" edge="1">
          <mxGeometry relative="1" as="geometry">
            <Array as="points">
              <mxPoint x="496" y="563" />
              <mxPoint x="496" y="563" />
            </Array>
          </mxGeometry>
        </mxCell>
        <mxCell id="-Vu_EtsaGJu-CdH1vXf4-4" value="LibCurve.sol" style="swimlane;" parent="1" vertex="1">
          <mxGeometry x="314" y="513" width="174" height="120" as="geometry" />
        </mxCell>
        <mxCell id="-Vu_EtsaGJu-CdH1vXf4-5" value="viewMeTokensMinted(&lt;br&gt;&lt;div&gt;&amp;nbsp; &amp;nbsp; uint256 assetsDeposited,&lt;/div&gt;&lt;div&gt;&amp;nbsp; &amp;nbsp; uint256 hubId,&lt;/div&gt;&lt;div&gt;&amp;nbsp; &amp;nbsp; uint256 supply,&lt;/div&gt;&lt;div&gt;&amp;nbsp; &amp;nbsp; uint256 balancePooled&lt;/div&gt;&lt;div&gt;)&lt;/div&gt;" style="text;html=1;align=left;verticalAlign=middle;resizable=0;points=[];autosize=1;strokeColor=none;fillColor=none;" parent="-Vu_EtsaGJu-CdH1vXf4-4" vertex="1">
          <mxGeometry x="10" y="29" width="160" height="90" as="geometry" />
        </mxCell>
        <mxCell id="-Vu_EtsaGJu-CdH1vXf4-7" value="" style="edgeStyle=orthogonalEdgeStyle;rounded=0;orthogonalLoop=1;jettySize=auto;html=1;fontColor=#4D4D4D;entryX=0;entryY=0.5;entryDx=0;entryDy=0;" parent="1" target="-Vu_EtsaGJu-CdH1vXf4-11" edge="1">
          <mxGeometry relative="1" as="geometry">
            <mxPoint x="563" y="563" as="sourcePoint" />
          </mxGeometry>
        </mxCell>
        <mxCell id="-Vu_EtsaGJu-CdH1vXf4-8" value="" style="edgeStyle=orthogonalEdgeStyle;rounded=0;orthogonalLoop=1;jettySize=auto;html=1;fontColor=#4D4D4D;" parent="1" source="-Vu_EtsaGJu-CdH1vXf4-9" target="-Vu_EtsaGJu-CdH1vXf4-17" edge="1">
          <mxGeometry relative="1" as="geometry" />
        </mxCell>
        <mxCell id="-Vu_EtsaGJu-CdH1vXf4-9" value="&lt;span style=&quot;background-color: rgb(255 , 255 , 255)&quot;&gt;&lt;font color=&quot;#000000&quot;&gt;is &amp;nbsp;hub reconfiguring curve?&lt;/font&gt;&lt;/span&gt;" style="rhombus;whiteSpace=wrap;html=1;fontColor=#4D4D4D;" parent="1" vertex="1">
          <mxGeometry x="510" y="523" width="80" height="80" as="geometry" />
        </mxCell>
        <mxCell id="-Vu_EtsaGJu-CdH1vXf4-10" value="" style="edgeStyle=orthogonalEdgeStyle;rounded=0;orthogonalLoop=1;jettySize=auto;html=1;fontColor=#4D4D4D;exitX=1;exitY=0.5;exitDx=0;exitDy=0;entryX=0;entryY=0.5;entryDx=0;entryDy=0;" parent="1" source="-Vu_EtsaGJu-CdH1vXf4-11" target="-Vu_EtsaGJu-CdH1vXf4-13" edge="1">
          <mxGeometry relative="1" as="geometry">
            <mxPoint x="560" y="563" as="targetPoint" />
            <mxPoint x="545.9998846593028" y="563.0588235294117" as="sourcePoint" />
          </mxGeometry>
        </mxCell>
        <mxCell id="-Vu_EtsaGJu-CdH1vXf4-11" value="N" style="ellipse;whiteSpace=wrap;html=1;fontColor=#4D4D4D;" parent="1" vertex="1">
          <mxGeometry x="615" y="548" width="30" height="30" as="geometry" />
        </mxCell>
        <mxCell id="-Vu_EtsaGJu-CdH1vXf4-30" value="" style="edgeStyle=orthogonalEdgeStyle;rounded=0;orthogonalLoop=1;jettySize=auto;html=1;fontFamily=Helvetica;fontSize=12;fontColor=#4D4D4D;entryX=0.5;entryY=0;entryDx=0;entryDy=0;" parent="1" source="-Vu_EtsaGJu-CdH1vXf4-13" target="-Vu_EtsaGJu-CdH1vXf4-27" edge="1">
          <mxGeometry relative="1" as="geometry">
            <Array as="points">
              <mxPoint x="707" y="623" />
            </Array>
          </mxGeometry>
        </mxCell>
        <mxCell id="-Vu_EtsaGJu-CdH1vXf4-32" value="" style="edgeStyle=orthogonalEdgeStyle;rounded=0;orthogonalLoop=1;jettySize=auto;html=1;fontFamily=Helvetica;fontSize=12;fontColor=#4D4D4D;" parent="1" source="-Vu_EtsaGJu-CdH1vXf4-13" target="-Vu_EtsaGJu-CdH1vXf4-31" edge="1">
          <mxGeometry relative="1" as="geometry" />
        </mxCell>
        <mxCell id="-Vu_EtsaGJu-CdH1vXf4-13" value="&lt;span style=&quot;background-color: rgb(255 , 255 , 255)&quot;&gt;&lt;font color=&quot;#000000&quot;&gt;is meToken&lt;br&gt;resubscribing?&lt;/font&gt;&lt;/span&gt;" style="rhombus;whiteSpace=wrap;html=1;fontColor=#4D4D4D;" parent="1" vertex="1">
          <mxGeometry x="667" y="523" width="80" height="80" as="geometry" />
        </mxCell>
        <mxCell id="-Vu_EtsaGJu-CdH1vXf4-25" value="" style="edgeStyle=orthogonalEdgeStyle;rounded=0;orthogonalLoop=1;jettySize=auto;html=1;fontFamily=Helvetica;fontSize=12;fontColor=#4D4D4D;entryX=0.5;entryY=0;entryDx=0;entryDy=0;" parent="1" target="-Vu_EtsaGJu-CdH1vXf4-20" edge="1">
          <mxGeometry relative="1" as="geometry">
            <mxPoint x="538" y="638" as="sourcePoint" />
            <mxPoint x="604" y="673" as="targetPoint" />
          </mxGeometry>
        </mxCell>
        <mxCell id="-Vu_EtsaGJu-CdH1vXf4-17" value="Y" style="ellipse;whiteSpace=wrap;html=1;fontColor=#4D4D4D;" parent="1" vertex="1">
          <mxGeometry x="535" y="623" width="30" height="30" as="geometry" />
        </mxCell>
        <mxCell id="-Vu_EtsaGJu-CdH1vXf4-36" value="" style="edgeStyle=orthogonalEdgeStyle;rounded=0;orthogonalLoop=1;jettySize=auto;html=1;fontFamily=Helvetica;fontSize=12;fontColor=#4D4D4D;entryX=0.5;entryY=0;entryDx=0;entryDy=0;" parent="1" source="-Vu_EtsaGJu-CdH1vXf4-20" target="-Vu_EtsaGJu-CdH1vXf4-34" edge="1">
          <mxGeometry relative="1" as="geometry" />
        </mxCell>
        <mxCell id="-Vu_EtsaGJu-CdH1vXf4-20" value="LibCurve.sol" style="swimlane;" parent="1" vertex="1">
          <mxGeometry x="539" y="673" width="180" height="120" as="geometry" />
        </mxCell>
        <mxCell id="-Vu_EtsaGJu-CdH1vXf4-21" value="viewTargetMeTokensMinted(&lt;br&gt;&lt;div&gt;&amp;nbsp; &amp;nbsp; uint256 assetsDeposited,&lt;/div&gt;&lt;div&gt;&amp;nbsp; &amp;nbsp; uint256 hubId,&lt;/div&gt;&lt;div&gt;&amp;nbsp; &amp;nbsp; uint256 supply,&lt;/div&gt;&lt;div&gt;&amp;nbsp; &amp;nbsp; uint256 balancePooled&lt;/div&gt;&lt;div&gt;)&lt;/div&gt;" style="text;html=1;align=left;verticalAlign=middle;resizable=0;points=[];autosize=1;strokeColor=none;fillColor=none;" parent="-Vu_EtsaGJu-CdH1vXf4-20" vertex="1">
          <mxGeometry x="10" y="29" width="170" height="90" as="geometry" />
        </mxCell>
        <mxCell id="-Vu_EtsaGJu-CdH1vXf4-26" value="" style="edgeStyle=orthogonalEdgeStyle;rounded=0;orthogonalLoop=1;jettySize=auto;html=1;fontFamily=Helvetica;fontSize=12;fontColor=#4D4D4D;entryX=0.5;entryY=0;entryDx=0;entryDy=0;exitX=0;exitY=0.5;exitDx=0;exitDy=0;" parent="1" source="-Vu_EtsaGJu-CdH1vXf4-27" target="-Vu_EtsaGJu-CdH1vXf4-20" edge="1">
          <mxGeometry relative="1" as="geometry">
            <mxPoint x="729" y="673" as="targetPoint" />
          </mxGeometry>
        </mxCell>
        <mxCell id="-Vu_EtsaGJu-CdH1vXf4-27" value="Y" style="ellipse;whiteSpace=wrap;html=1;fontColor=#4D4D4D;" parent="1" vertex="1">
          <mxGeometry x="692" y="623" width="30" height="30" as="geometry" />
        </mxCell>
        <mxCell id="-Vu_EtsaGJu-CdH1vXf4-56" value="" style="edgeStyle=orthogonalEdgeStyle;rounded=0;orthogonalLoop=1;jettySize=auto;html=1;fontFamily=Helvetica;fontSize=12;fontColor=#4D4D4D;entryX=1;entryY=0.5;entryDx=0;entryDy=0;exitX=0.5;exitY=0.833;exitDx=0;exitDy=0;exitPerimeter=0;" parent="1" source="-Vu_EtsaGJu-CdH1vXf4-31" target="-Vu_EtsaGJu-CdH1vXf4-58" edge="1">
          <mxGeometry relative="1" as="geometry">
            <mxPoint x="840.5" y="658" as="targetPoint" />
            <Array as="points">
              <mxPoint x="787" y="984" />
            </Array>
          </mxGeometry>
        </mxCell>
        <mxCell id="-Vu_EtsaGJu-CdH1vXf4-31" value="N" style="ellipse;whiteSpace=wrap;html=1;fontColor=#4D4D4D;" parent="1" vertex="1">
          <mxGeometry x="772" y="548" width="30" height="30" as="geometry" />
        </mxCell>
        <mxCell id="-Vu_EtsaGJu-CdH1vXf4-62" value="" style="edgeStyle=orthogonalEdgeStyle;rounded=0;orthogonalLoop=1;jettySize=auto;html=1;fontFamily=Helvetica;fontSize=12;fontColor=#4D4D4D;entryX=0.5;entryY=0;entryDx=0;entryDy=0;" parent="1" source="-Vu_EtsaGJu-CdH1vXf4-34" target="-Vu_EtsaGJu-CdH1vXf4-58" edge="1">
          <mxGeometry relative="1" as="geometry">
            <mxPoint x="492" y="973" as="targetPoint" />
          </mxGeometry>
        </mxCell>
        <mxCell id="-Vu_EtsaGJu-CdH1vXf4-34" value="LibWeightedAverage.sol" style="swimlane;" parent="1" vertex="1">
          <mxGeometry x="539" y="813" width="180" height="120" as="geometry" />
        </mxCell>
        <mxCell id="-Vu_EtsaGJu-CdH1vXf4-35" value="calculate(&lt;br&gt;&lt;div&gt;&amp;nbsp; &amp;nbsp; uint256 amount,&lt;/div&gt;&lt;div&gt;&amp;nbsp; &amp;nbsp; uint256 targetAmount,&lt;/div&gt;&lt;div&gt;&amp;nbsp; &amp;nbsp; uint256 startTime,&lt;/div&gt;&lt;div&gt;&amp;nbsp; &amp;nbsp; uint256 endTime&lt;/div&gt;&lt;div&gt;)&lt;/div&gt;" style="text;html=1;align=left;verticalAlign=middle;resizable=0;points=[];autosize=1;strokeColor=none;fillColor=none;" parent="-Vu_EtsaGJu-CdH1vXf4-34" vertex="1">
          <mxGeometry x="10" y="29" width="150" height="90" as="geometry" />
        </mxCell>
        <mxCell id="-Vu_EtsaGJu-CdH1vXf4-58" value="LibCurve.sol" style="swimlane;" parent="1" vertex="1">
          <mxGeometry x="553.75" y="954" width="152.5" height="60" as="geometry" />
        </mxCell>
        <mxCell id="-Vu_EtsaGJu-CdH1vXf4-59" value="return(meTokenMinted)" style="text;html=1;align=left;verticalAlign=middle;resizable=0;points=[];autosize=1;strokeColor=none;fillColor=none;" parent="-Vu_EtsaGJu-CdH1vXf4-58" vertex="1">
          <mxGeometry x="12.5" y="29" width="140" height="20" as="geometry" />
        </mxCell>
        <mxCell id="-Vu_EtsaGJu-CdH1vXf4-69" value="" style="edgeStyle=orthogonalEdgeStyle;rounded=0;orthogonalLoop=1;jettySize=auto;html=1;fontFamily=Helvetica;fontSize=12;fontColor=#4D4D4D;entryX=0;entryY=0.5;entryDx=0;entryDy=0;" parent="1" source="-Vu_EtsaGJu-CdH1vXf4-63" target="-Vu_EtsaGJu-CdH1vXf4-67" edge="1">
          <mxGeometry relative="1" as="geometry" />
        </mxCell>
        <mxCell id="-Vu_EtsaGJu-CdH1vXf4-63" value="FoundryFacet.sol" style="swimlane;" parent="1" vertex="1">
          <mxGeometry x="112" y="1023" width="174" height="120" as="geometry" />
        </mxCell>
        <mxCell id="-Vu_EtsaGJu-CdH1vXf4-64" value="_handleDeposit(&lt;br&gt;&lt;div&gt;&amp;nbsp; &amp;nbsp; address from,&lt;/div&gt;&lt;div&gt;&amp;nbsp; &amp;nbsp; address asset,&lt;/div&gt;&lt;div&gt;&amp;nbsp; &amp;nbsp; uint256 amount,&lt;/div&gt;&lt;div&gt;&amp;nbsp; &amp;nbsp; uint256 fee&lt;/div&gt;&lt;div&gt;)&lt;/div&gt;" style="text;html=1;align=left;verticalAlign=middle;resizable=0;points=[];autosize=1;strokeColor=none;fillColor=none;" parent="-Vu_EtsaGJu-CdH1vXf4-63" vertex="1">
          <mxGeometry x="10" y="27" width="110" height="90" as="geometry" />
        </mxCell>
        <mxCell id="-Vu_EtsaGJu-CdH1vXf4-66" value="" style="edgeStyle=orthogonalEdgeStyle;rounded=0;orthogonalLoop=1;jettySize=auto;html=1;fontFamily=Helvetica;fontSize=12;fontColor=#4D4D4D;entryX=0.5;entryY=0;entryDx=0;entryDy=0;exitX=0;exitY=0.5;exitDx=0;exitDy=0;" parent="1" source="-Vu_EtsaGJu-CdH1vXf4-58" target="-Vu_EtsaGJu-CdH1vXf4-63" edge="1">
          <mxGeometry relative="1" as="geometry">
            <mxPoint x="516" y="993" as="sourcePoint" />
            <mxPoint x="460.2499999999998" y="993" as="targetPoint" />
          </mxGeometry>
        </mxCell>
        <mxCell id="-Vu_EtsaGJu-CdH1vXf4-73" value="" style="edgeStyle=orthogonalEdgeStyle;rounded=0;orthogonalLoop=1;jettySize=auto;html=1;fontFamily=Helvetica;fontSize=12;fontColor=#4D4D4D;entryX=0.5;entryY=0;entryDx=0;entryDy=0;" parent="1" source="-Vu_EtsaGJu-CdH1vXf4-67" target="-Vu_EtsaGJu-CdH1vXf4-70" edge="1">
          <mxGeometry relative="1" as="geometry">
            <mxPoint x="603" y="1083" as="targetPoint" />
            <Array as="points">
              <mxPoint x="556" y="1083" />
              <mxPoint x="556" y="1173" />
              <mxPoint x="199" y="1173" />
            </Array>
          </mxGeometry>
        </mxCell>
        <mxCell id="-Vu_EtsaGJu-CdH1vXf4-67" value="IVault.sol" style="swimlane;dashed=1;" parent="1" vertex="1">
          <mxGeometry x="356" y="1023" width="132" height="120" as="geometry" />
        </mxCell>
        <mxCell id="-Vu_EtsaGJu-CdH1vXf4-68" value="_handleDeposit(&lt;br&gt;&lt;div&gt;&amp;nbsp; &amp;nbsp; address from,&lt;/div&gt;&lt;div&gt;&amp;nbsp; &amp;nbsp; address asset,&lt;/div&gt;&lt;div&gt;&amp;nbsp; &amp;nbsp; uint256 amount,&lt;/div&gt;&lt;div&gt;&amp;nbsp; &amp;nbsp; uint256 fee&lt;/div&gt;&lt;div&gt;)&lt;/div&gt;" style="text;html=1;align=left;verticalAlign=middle;resizable=0;points=[];autosize=1;strokeColor=none;fillColor=none;" parent="-Vu_EtsaGJu-CdH1vXf4-67" vertex="1">
          <mxGeometry x="10" y="27" width="110" height="90" as="geometry" />
        </mxCell>
        <mxCell id="-Vu_EtsaGJu-CdH1vXf4-79" value="" style="edgeStyle=orthogonalEdgeStyle;rounded=0;orthogonalLoop=1;jettySize=auto;html=1;fontFamily=Helvetica;fontSize=12;fontColor=#4D4D4D;entryX=0;entryY=0.5;entryDx=0;entryDy=0;" parent="1" source="-Vu_EtsaGJu-CdH1vXf4-70" target="-Vu_EtsaGJu-CdH1vXf4-77" edge="1">
          <mxGeometry relative="1" as="geometry" />
        </mxCell>
        <mxCell id="-Vu_EtsaGJu-CdH1vXf4-70" value="FoundryFacet.sol" style="swimlane;" parent="1" vertex="1">
          <mxGeometry x="112" y="1193" width="174" height="110" as="geometry" />
        </mxCell>
        <mxCell id="-Vu_EtsaGJu-CdH1vXf4-71" value="updateBalancePooled(&lt;br&gt;&lt;div&gt;&amp;nbsp; &amp;nbsp; bool true,&lt;/div&gt;&lt;div&gt;&amp;nbsp; &amp;nbsp; address meToken,&lt;/div&gt;&lt;div&gt;&amp;nbsp; &amp;nbsp; uint256 amount&lt;/div&gt;&lt;div&gt;)&lt;/div&gt;" style="text;html=1;align=left;verticalAlign=middle;resizable=0;points=[];autosize=1;strokeColor=none;fillColor=none;" parent="-Vu_EtsaGJu-CdH1vXf4-70" vertex="1">
          <mxGeometry x="10" y="27" width="140" height="80" as="geometry" />
        </mxCell>
        <mxCell id="-Vu_EtsaGJu-CdH1vXf4-84" value="" style="edgeStyle=orthogonalEdgeStyle;rounded=0;orthogonalLoop=1;jettySize=auto;html=1;fontFamily=Helvetica;fontSize=12;fontColor=#4D4D4D;entryX=0.5;entryY=0;entryDx=0;entryDy=0;" parent="1" source="-Vu_EtsaGJu-CdH1vXf4-77" target="-Vu_EtsaGJu-CdH1vXf4-81" edge="1">
          <mxGeometry relative="1" as="geometry">
            <mxPoint x="616" y="1248" as="targetPoint" />
            <Array as="points">
              <mxPoint x="556" y="1248" />
              <mxPoint x="556" y="1333" />
              <mxPoint x="199" y="1333" />
            </Array>
          </mxGeometry>
        </mxCell>
        <mxCell id="-Vu_EtsaGJu-CdH1vXf4-77" value="LibMeToken.sol" style="swimlane;" parent="1" vertex="1">
          <mxGeometry x="335" y="1193" width="174" height="110" as="geometry" />
        </mxCell>
        <mxCell id="-Vu_EtsaGJu-CdH1vXf4-78" value="updateBalancePooled(&lt;br&gt;&lt;div&gt;&amp;nbsp; &amp;nbsp; bool true,&lt;/div&gt;&lt;div&gt;&amp;nbsp; &amp;nbsp; address meToken,&lt;/div&gt;&lt;div&gt;&amp;nbsp; &amp;nbsp; uint256 amount&lt;/div&gt;&lt;div&gt;)&lt;/div&gt;" style="text;html=1;align=left;verticalAlign=middle;resizable=0;points=[];autosize=1;strokeColor=none;fillColor=none;" parent="-Vu_EtsaGJu-CdH1vXf4-77" vertex="1">
          <mxGeometry x="10" y="27" width="140" height="80" as="geometry" />
        </mxCell>
        <mxCell id="-Vu_EtsaGJu-CdH1vXf4-87" value="" style="edgeStyle=orthogonalEdgeStyle;rounded=0;orthogonalLoop=1;jettySize=auto;html=1;fontFamily=Helvetica;fontSize=12;fontColor=#4D4D4D;entryX=0;entryY=0.5;entryDx=0;entryDy=0;" parent="1" source="-Vu_EtsaGJu-CdH1vXf4-81" target="-Vu_EtsaGJu-CdH1vXf4-85" edge="1">
          <mxGeometry relative="1" as="geometry" />
        </mxCell>
        <mxCell id="-Vu_EtsaGJu-CdH1vXf4-81" value="FoundryFacet.sol" style="swimlane;" parent="1" vertex="1">
          <mxGeometry x="112" y="1356" width="174" height="90" as="geometry" />
        </mxCell>
        <mxCell id="-Vu_EtsaGJu-CdH1vXf4-82" value="mint(&lt;br&gt;&lt;div&gt;&amp;nbsp; &amp;nbsp; address recipient,&lt;/div&gt;&lt;div&gt;&amp;nbsp; &amp;nbsp;uint256 amount&lt;/div&gt;&lt;div&gt;)&lt;/div&gt;" style="text;html=1;align=left;verticalAlign=middle;resizable=0;points=[];autosize=1;strokeColor=none;fillColor=none;" parent="-Vu_EtsaGJu-CdH1vXf4-81" vertex="1">
          <mxGeometry x="10" y="27" width="120" height="60" as="geometry" />
        </mxCell>
        <mxCell id="-Vu_EtsaGJu-CdH1vXf4-85" value="IMeToken.sol" style="swimlane;dashed=1;" parent="1" vertex="1">
          <mxGeometry x="356" y="1356" width="130" height="90" as="geometry" />
        </mxCell>
        <mxCell id="-Vu_EtsaGJu-CdH1vXf4-86" value="mint(&lt;br&gt;&lt;div&gt;&amp;nbsp; &amp;nbsp; address to,&lt;/div&gt;&lt;div&gt;&amp;nbsp; &amp;nbsp; uint256 amount&lt;/div&gt;&lt;div&gt;)&lt;/div&gt;" style="text;html=1;align=left;verticalAlign=middle;resizable=0;points=[];autosize=1;strokeColor=none;fillColor=none;" parent="-Vu_EtsaGJu-CdH1vXf4-85" vertex="1">
          <mxGeometry x="10" y="27" width="110" height="60" as="geometry" />
        </mxCell>
      </root>
    </mxGraphModel>
  </diagram>
  <diagram name="Copy of Page-2" id="KPxzlwwPOhCPfL-Mfk4a">
    <mxGraphModel dx="868" dy="732" grid="1" gridSize="10" guides="1" tooltips="1" connect="1" arrows="1" fold="1" page="1" pageScale="1" pageWidth="850" pageHeight="1100" math="0" shadow="0">
      <root>
        <mxCell id="mxPUpASC_8Y2sPtaak1J-0" />
        <mxCell id="mxPUpASC_8Y2sPtaak1J-1" parent="mxPUpASC_8Y2sPtaak1J-0" />
        <mxCell id="mxPUpASC_8Y2sPtaak1J-2" value="" style="edgeStyle=orthogonalEdgeStyle;rounded=0;orthogonalLoop=1;jettySize=auto;html=1;fontColor=#4D4D4D;" edge="1" parent="mxPUpASC_8Y2sPtaak1J-1" source="mxPUpASC_8Y2sPtaak1J-3">
          <mxGeometry relative="1" as="geometry">
            <mxPoint x="108" y="93" as="targetPoint" />
          </mxGeometry>
        </mxCell>
        <mxCell id="mxPUpASC_8Y2sPtaak1J-3" value="meToken&lt;br&gt;Seller" style="shape=umlActor;verticalLabelPosition=bottom;verticalAlign=top;html=1;outlineConnect=0;" vertex="1" parent="mxPUpASC_8Y2sPtaak1J-1">
          <mxGeometry x="32" y="63" width="30" height="60" as="geometry" />
        </mxCell>
        <mxCell id="mxPUpASC_8Y2sPtaak1J-4" value="" style="edgeStyle=orthogonalEdgeStyle;rounded=0;orthogonalLoop=1;jettySize=auto;html=1;fontColor=#4D4D4D;entryX=0.5;entryY=0;entryDx=0;entryDy=0;" edge="1" parent="mxPUpASC_8Y2sPtaak1J-1" source="mxPUpASC_8Y2sPtaak1J-5" target="mxPUpASC_8Y2sPtaak1J-8">
          <mxGeometry relative="1" as="geometry" />
        </mxCell>
        <mxCell id="mxPUpASC_8Y2sPtaak1J-5" value="FoundryFacet.sol" style="swimlane;" vertex="1" parent="mxPUpASC_8Y2sPtaak1J-1">
          <mxGeometry x="109" y="25" width="180" height="120" as="geometry" />
        </mxCell>
        <mxCell id="mxPUpASC_8Y2sPtaak1J-6" value="burn(&lt;br&gt;&lt;div&gt;&amp;nbsp; &amp;nbsp; address meToken,&lt;/div&gt;&lt;div&gt;&amp;nbsp; &amp;nbsp; uint256 meTokensBurned,&lt;/div&gt;&lt;div&gt;&amp;nbsp; &amp;nbsp; address recipient&lt;/div&gt;&lt;div&gt;)&lt;/div&gt;" style="text;html=1;align=left;verticalAlign=middle;resizable=0;points=[];autosize=1;strokeColor=none;fillColor=none;" vertex="1" parent="mxPUpASC_8Y2sPtaak1J-5">
          <mxGeometry x="10" y="29" width="170" height="80" as="geometry" />
        </mxCell>
        <mxCell id="mxPUpASC_8Y2sPtaak1J-7" value="" style="edgeStyle=orthogonalEdgeStyle;rounded=0;orthogonalLoop=1;jettySize=auto;html=1;fontColor=#4D4D4D;entryX=0;entryY=0.5;entryDx=0;entryDy=0;" edge="1" parent="mxPUpASC_8Y2sPtaak1J-1" source="mxPUpASC_8Y2sPtaak1J-8" target="mxPUpASC_8Y2sPtaak1J-12">
          <mxGeometry relative="1" as="geometry" />
        </mxCell>
        <mxCell id="mxPUpASC_8Y2sPtaak1J-8" value="FoundryFacet.sol" style="swimlane;" vertex="1" parent="mxPUpASC_8Y2sPtaak1J-1">
          <mxGeometry x="109" y="175" width="180" height="100" as="geometry" />
        </mxCell>
        <mxCell id="mxPUpASC_8Y2sPtaak1J-9" value="_handleBurn(&lt;br&gt;&lt;div&gt;&amp;nbsp; &amp;nbsp; address meToken,&lt;/div&gt;&lt;div&gt;&amp;nbsp; &amp;nbsp; uint256 meTokensBurned,&lt;/div&gt;&lt;div&gt;)&lt;/div&gt;" style="text;html=1;align=left;verticalAlign=middle;resizable=0;points=[];autosize=1;strokeColor=none;fillColor=none;" vertex="1" parent="mxPUpASC_8Y2sPtaak1J-8">
          <mxGeometry x="10" y="29" width="170" height="60" as="geometry" />
        </mxCell>
        <mxCell id="mxPUpASC_8Y2sPtaak1J-10" value="" style="edgeStyle=orthogonalEdgeStyle;rounded=0;orthogonalLoop=1;jettySize=auto;html=1;fontColor=#4D4D4D;entryX=0;entryY=0.5;entryDx=0;entryDy=0;" edge="1" parent="mxPUpASC_8Y2sPtaak1J-1" source="mxPUpASC_8Y2sPtaak1J-12" target="mxPUpASC_8Y2sPtaak1J-14">
          <mxGeometry relative="1" as="geometry" />
        </mxCell>
        <mxCell id="mxPUpASC_8Y2sPtaak1J-11" value="" style="edgeStyle=orthogonalEdgeStyle;rounded=0;orthogonalLoop=1;jettySize=auto;html=1;fontColor=#4D4D4D;" edge="1" parent="mxPUpASC_8Y2sPtaak1J-1" source="mxPUpASC_8Y2sPtaak1J-12" target="mxPUpASC_8Y2sPtaak1J-25">
          <mxGeometry relative="1" as="geometry" />
        </mxCell>
        <mxCell id="mxPUpASC_8Y2sPtaak1J-12" value="&lt;font color=&quot;#000000&quot;&gt;hub done updating?&lt;/font&gt;" style="rhombus;whiteSpace=wrap;html=1;fontColor=#4D4D4D;" vertex="1" parent="mxPUpASC_8Y2sPtaak1J-1">
          <mxGeometry x="309" y="185" width="80" height="80" as="geometry" />
        </mxCell>
        <mxCell id="mxPUpASC_8Y2sPtaak1J-13" value="" style="edgeStyle=orthogonalEdgeStyle;rounded=0;orthogonalLoop=1;jettySize=auto;html=1;fontColor=#4D4D4D;exitX=1;exitY=0.5;exitDx=0;exitDy=0;" edge="1" parent="mxPUpASC_8Y2sPtaak1J-1" source="mxPUpASC_8Y2sPtaak1J-14">
          <mxGeometry relative="1" as="geometry">
            <mxPoint x="446" y="225" as="targetPoint" />
            <mxPoint x="431.9998846593028" y="225.0588235294117" as="sourcePoint" />
          </mxGeometry>
        </mxCell>
        <mxCell id="mxPUpASC_8Y2sPtaak1J-14" value="Y" style="ellipse;whiteSpace=wrap;html=1;fontColor=#4D4D4D;" vertex="1" parent="mxPUpASC_8Y2sPtaak1J-1">
          <mxGeometry x="400" y="210" width="30" height="30" as="geometry" />
        </mxCell>
        <mxCell id="mxPUpASC_8Y2sPtaak1J-15" value="" style="edgeStyle=orthogonalEdgeStyle;rounded=0;orthogonalLoop=1;jettySize=auto;html=1;fontFamily=Helvetica;fontSize=12;fontColor=#4D4D4D;" edge="1" parent="mxPUpASC_8Y2sPtaak1J-1" source="mxPUpASC_8Y2sPtaak1J-16" target="mxPUpASC_8Y2sPtaak1J-30">
          <mxGeometry relative="1" as="geometry" />
        </mxCell>
        <mxCell id="mxPUpASC_8Y2sPtaak1J-16" value="N" style="ellipse;whiteSpace=wrap;html=1;fontColor=#4D4D4D;" vertex="1" parent="mxPUpASC_8Y2sPtaak1J-1">
          <mxGeometry x="480" y="370" width="30" height="30" as="geometry" />
        </mxCell>
        <mxCell id="mxPUpASC_8Y2sPtaak1J-17" value="" style="edgeStyle=orthogonalEdgeStyle;rounded=0;orthogonalLoop=1;jettySize=auto;html=1;fontFamily=Helvetica;fontSize=12;fontColor=#4D4D4D;entryX=0;entryY=0.5;entryDx=0;entryDy=0;" edge="1" parent="mxPUpASC_8Y2sPtaak1J-1" source="mxPUpASC_8Y2sPtaak1J-19" target="mxPUpASC_8Y2sPtaak1J-23">
          <mxGeometry relative="1" as="geometry" />
        </mxCell>
        <mxCell id="mxPUpASC_8Y2sPtaak1J-18" value="" style="edgeStyle=orthogonalEdgeStyle;rounded=0;orthogonalLoop=1;jettySize=auto;html=1;fontFamily=Helvetica;fontSize=12;fontColor=#4D4D4D;" edge="1" parent="mxPUpASC_8Y2sPtaak1J-1" source="mxPUpASC_8Y2sPtaak1J-19" target="mxPUpASC_8Y2sPtaak1J-16">
          <mxGeometry relative="1" as="geometry" />
        </mxCell>
        <mxCell id="l0JXnQV0ga9Xy7pXy6PY-0" style="edgeStyle=orthogonalEdgeStyle;rounded=0;orthogonalLoop=1;jettySize=auto;html=1;" edge="1" parent="mxPUpASC_8Y2sPtaak1J-1" source="mxPUpASC_8Y2sPtaak1J-19">
          <mxGeometry relative="1" as="geometry">
            <mxPoint x="450" y="300" as="targetPoint" />
          </mxGeometry>
        </mxCell>
        <mxCell id="mxPUpASC_8Y2sPtaak1J-19" value="&lt;span style=&quot;background-color: rgb(255 , 255 , 255)&quot;&gt;&lt;font color=&quot;#000000&quot;&gt;meToken&lt;br&gt;done&lt;br&gt;resubscribing?&lt;/font&gt;&lt;/span&gt;" style="rhombus;whiteSpace=wrap;html=1;fontColor=#4D4D4D;" vertex="1" parent="mxPUpASC_8Y2sPtaak1J-1">
          <mxGeometry x="455" y="260" width="80" height="80" as="geometry" />
        </mxCell>
        <mxCell id="mxPUpASC_8Y2sPtaak1J-20" value="LibHub.sol" style="swimlane;labelBackgroundColor=none;" vertex="1" parent="mxPUpASC_8Y2sPtaak1J-1">
          <mxGeometry x="445" y="175" width="100" height="80" as="geometry" />
        </mxCell>
        <mxCell id="mxPUpASC_8Y2sPtaak1J-21" value="finishUpdate(&lt;br&gt;&lt;div&gt;&amp;nbsp; &amp;nbsp; uint256 id&lt;/div&gt;&lt;div&gt;)&lt;/div&gt;" style="text;html=1;align=left;verticalAlign=middle;resizable=0;points=[];autosize=1;strokeColor=none;fillColor=none;" vertex="1" parent="mxPUpASC_8Y2sPtaak1J-20">
          <mxGeometry x="10" y="25" width="90" height="50" as="geometry" />
        </mxCell>
        <mxCell id="mxPUpASC_8Y2sPtaak1J-22" value="" style="edgeStyle=orthogonalEdgeStyle;rounded=0;orthogonalLoop=1;jettySize=auto;html=1;fontFamily=Helvetica;fontSize=12;fontColor=#4D4D4D;exitX=1;exitY=0.5;exitDx=0;exitDy=0;" edge="1" parent="mxPUpASC_8Y2sPtaak1J-1" source="mxPUpASC_8Y2sPtaak1J-23">
          <mxGeometry relative="1" as="geometry">
            <mxPoint x="596" y="300" as="targetPoint" />
            <mxPoint x="585.9999542751932" y="300.03703703703707" as="sourcePoint" />
          </mxGeometry>
        </mxCell>
        <mxCell id="mxPUpASC_8Y2sPtaak1J-23" value="Y" style="ellipse;whiteSpace=wrap;html=1;fontColor=#4D4D4D;" vertex="1" parent="mxPUpASC_8Y2sPtaak1J-1">
          <mxGeometry x="548" y="285" width="30" height="30" as="geometry" />
        </mxCell>
        <mxCell id="mxPUpASC_8Y2sPtaak1J-24" value="" style="edgeStyle=orthogonalEdgeStyle;rounded=0;orthogonalLoop=1;jettySize=auto;html=1;fontFamily=Helvetica;fontSize=12;fontColor=#4D4D4D;" edge="1" parent="mxPUpASC_8Y2sPtaak1J-1" source="mxPUpASC_8Y2sPtaak1J-25" target="mxPUpASC_8Y2sPtaak1J-19">
          <mxGeometry relative="1" as="geometry" />
        </mxCell>
        <mxCell id="mxPUpASC_8Y2sPtaak1J-25" value="N" style="ellipse;whiteSpace=wrap;html=1;fontColor=#4D4D4D;" vertex="1" parent="mxPUpASC_8Y2sPtaak1J-1">
          <mxGeometry x="334" y="285" width="30" height="30" as="geometry" />
        </mxCell>
        <mxCell id="mxPUpASC_8Y2sPtaak1J-26" value="LibMeTokens.sol" style="swimlane;labelBackgroundColor=none;" vertex="1" parent="mxPUpASC_8Y2sPtaak1J-1">
          <mxGeometry x="598" y="260" width="132" height="80" as="geometry" />
        </mxCell>
        <mxCell id="mxPUpASC_8Y2sPtaak1J-27" value="finishResubscribe(&lt;br&gt;&lt;div&gt;&amp;nbsp; &amp;nbsp; address meToken&lt;/div&gt;&lt;div&gt;)&lt;/div&gt;" style="text;html=1;align=left;verticalAlign=middle;resizable=0;points=[];autosize=1;strokeColor=none;fillColor=none;labelBackgroundColor=none;" vertex="1" parent="mxPUpASC_8Y2sPtaak1J-26">
          <mxGeometry x="10" y="25" width="120" height="50" as="geometry" />
        </mxCell>
        <mxCell id="mxPUpASC_8Y2sPtaak1J-28" value="" style="edgeStyle=orthogonalEdgeStyle;rounded=0;orthogonalLoop=1;jettySize=auto;html=1;fontFamily=Helvetica;fontSize=12;fontColor=#4D4D4D;entryX=0;entryY=0.5;entryDx=0;entryDy=0;" edge="1" parent="mxPUpASC_8Y2sPtaak1J-1" source="mxPUpASC_8Y2sPtaak1J-30" target="mxPUpASC_8Y2sPtaak1J-32">
          <mxGeometry relative="1" as="geometry" />
        </mxCell>
        <mxCell id="mxPUpASC_8Y2sPtaak1J-29" value="" style="edgeStyle=orthogonalEdgeStyle;rounded=0;orthogonalLoop=1;jettySize=auto;html=1;fontFamily=Helvetica;fontSize=12;fontColor=#4D4D4D;" edge="1" parent="mxPUpASC_8Y2sPtaak1J-1" source="mxPUpASC_8Y2sPtaak1J-30" target="mxPUpASC_8Y2sPtaak1J-40">
          <mxGeometry relative="1" as="geometry" />
        </mxCell>
        <mxCell id="mxPUpASC_8Y2sPtaak1J-30" value="&lt;span style=&quot;background-color: rgb(255 , 255 , 255)&quot;&gt;&lt;font color=&quot;#000000&quot;&gt;meToken&lt;br&gt;currently&lt;br&gt;resubscribing?&lt;/font&gt;&lt;/span&gt;" style="rhombus;whiteSpace=wrap;html=1;fontColor=#4D4D4D;" vertex="1" parent="mxPUpASC_8Y2sPtaak1J-1">
          <mxGeometry x="623" y="345" width="80" height="80" as="geometry" />
        </mxCell>
        <mxCell id="mxPUpASC_8Y2sPtaak1J-31" value="" style="edgeStyle=orthogonalEdgeStyle;rounded=0;orthogonalLoop=1;jettySize=auto;html=1;fontFamily=Helvetica;fontSize=12;fontColor=#4D4D4D;" edge="1" parent="mxPUpASC_8Y2sPtaak1J-1">
          <mxGeometry relative="1" as="geometry">
            <mxPoint x="731.6885775404495" y="381" as="sourcePoint" />
            <mxPoint x="756" y="384" as="targetPoint" />
            <Array as="points">
              <mxPoint x="732" y="384" />
            </Array>
          </mxGeometry>
        </mxCell>
        <mxCell id="mxPUpASC_8Y2sPtaak1J-32" value="Y" style="ellipse;whiteSpace=wrap;html=1;fontColor=#4D4D4D;" vertex="1" parent="mxPUpASC_8Y2sPtaak1J-1">
          <mxGeometry x="713" y="370" width="30" height="30" as="geometry" />
        </mxCell>
        <mxCell id="mxPUpASC_8Y2sPtaak1J-33" value="" style="edgeStyle=orthogonalEdgeStyle;rounded=0;orthogonalLoop=1;jettySize=auto;html=1;fontFamily=Helvetica;fontSize=12;fontColor=#4D4D4D;" edge="1" parent="mxPUpASC_8Y2sPtaak1J-1" source="mxPUpASC_8Y2sPtaak1J-34">
          <mxGeometry relative="1" as="geometry">
            <mxPoint x="196" y="513" as="targetPoint" />
            <Array as="points">
              <mxPoint x="906" y="385" />
              <mxPoint x="906" y="483" />
              <mxPoint x="196" y="483" />
            </Array>
          </mxGeometry>
        </mxCell>
        <mxCell id="mxPUpASC_8Y2sPtaak1J-34" value="IMigration.sol" style="swimlane;" vertex="1" parent="mxPUpASC_8Y2sPtaak1J-1">
          <mxGeometry x="755" y="361" width="130" height="48" as="geometry" />
        </mxCell>
        <mxCell id="mxPUpASC_8Y2sPtaak1J-35" value="poke()" style="text;html=1;align=left;verticalAlign=middle;resizable=0;points=[];autosize=1;strokeColor=none;fillColor=none;" vertex="1" parent="mxPUpASC_8Y2sPtaak1J-34">
          <mxGeometry x="10" y="25" width="50" height="20" as="geometry" />
        </mxCell>
        <mxCell id="7FLRnjDci5-5pEVH_hQI-1" value="" style="edgeStyle=orthogonalEdgeStyle;rounded=0;orthogonalLoop=1;jettySize=auto;html=1;" edge="1" parent="mxPUpASC_8Y2sPtaak1J-1" source="mxPUpASC_8Y2sPtaak1J-37">
          <mxGeometry relative="1" as="geometry">
            <mxPoint x="340" y="563" as="targetPoint" />
          </mxGeometry>
        </mxCell>
        <mxCell id="mxPUpASC_8Y2sPtaak1J-37" value="FoundryFacet.sol" style="swimlane;" vertex="1" parent="mxPUpASC_8Y2sPtaak1J-1">
          <mxGeometry x="112" y="513" width="198" height="100" as="geometry" />
        </mxCell>
        <mxCell id="mxPUpASC_8Y2sPtaak1J-38" value="_calculateRawAssetsReturned(&lt;br&gt;&lt;div&gt;&amp;nbsp; &amp;nbsp; address meToken,&lt;/div&gt;&lt;div&gt;&amp;nbsp; &amp;nbsp; uint256 meTokensBurned,&lt;/div&gt;&lt;div&gt;)&lt;/div&gt;" style="text;html=1;align=left;verticalAlign=middle;resizable=0;points=[];autosize=1;strokeColor=none;fillColor=none;" vertex="1" parent="mxPUpASC_8Y2sPtaak1J-37">
          <mxGeometry x="10" y="29" width="180" height="60" as="geometry" />
        </mxCell>
        <mxCell id="mxPUpASC_8Y2sPtaak1J-39" value="" style="edgeStyle=orthogonalEdgeStyle;rounded=0;orthogonalLoop=1;jettySize=auto;html=1;fontFamily=Helvetica;fontSize=12;fontColor=#4D4D4D;endArrow=none;entryX=0.5;entryY=1;entryDx=0;entryDy=0;" edge="1" parent="mxPUpASC_8Y2sPtaak1J-1" source="mxPUpASC_8Y2sPtaak1J-27" target="mxPUpASC_8Y2sPtaak1J-40">
          <mxGeometry relative="1" as="geometry">
            <mxPoint x="728" y="310" as="sourcePoint" />
            <mxPoint x="706" y="473" as="targetPoint" />
            <Array as="points">
              <mxPoint x="906" y="310" />
              <mxPoint x="906" y="483" />
              <mxPoint x="663" y="483" />
            </Array>
          </mxGeometry>
        </mxCell>
        <mxCell id="mxPUpASC_8Y2sPtaak1J-40" value="N" style="ellipse;whiteSpace=wrap;html=1;fontColor=#4D4D4D;" vertex="1" parent="mxPUpASC_8Y2sPtaak1J-1">
          <mxGeometry x="648" y="443" width="30" height="30" as="geometry" />
        </mxCell>
        <mxCell id="mxPUpASC_8Y2sPtaak1J-41" value="" style="edgeStyle=orthogonalEdgeStyle;rounded=0;orthogonalLoop=1;jettySize=auto;html=1;fontFamily=Helvetica;fontSize=12;fontColor=#4D4D4D;endArrow=none;entryX=0.5;entryY=1;entryDx=0;entryDy=0;" edge="1" parent="mxPUpASC_8Y2sPtaak1J-1" source="mxPUpASC_8Y2sPtaak1J-21" target="mxPUpASC_8Y2sPtaak1J-40">
          <mxGeometry relative="1" as="geometry">
            <mxPoint x="676" y="473" as="targetPoint" />
            <Array as="points">
              <mxPoint x="906" y="225" />
              <mxPoint x="906" y="483" />
              <mxPoint x="663" y="483" />
            </Array>
            <mxPoint x="545" y="225" as="sourcePoint" />
          </mxGeometry>
        </mxCell>
        <mxCell id="l0JXnQV0ga9Xy7pXy6PY-4" value="" style="edgeStyle=orthogonalEdgeStyle;rounded=0;orthogonalLoop=1;jettySize=auto;html=1;fontFamily=Helvetica;fontSize=12;fontColor=#4D4D4D;" edge="1" parent="mxPUpASC_8Y2sPtaak1J-1" source="l0JXnQV0ga9Xy7pXy6PY-5" target="l0JXnQV0ga9Xy7pXy6PY-9">
          <mxGeometry relative="1" as="geometry">
            <Array as="points">
              <mxPoint x="522" y="563" />
              <mxPoint x="522" y="563" />
            </Array>
          </mxGeometry>
        </mxCell>
        <mxCell id="l0JXnQV0ga9Xy7pXy6PY-5" value="LibCurve.sol" style="swimlane;" vertex="1" parent="mxPUpASC_8Y2sPtaak1J-1">
          <mxGeometry x="340" y="513" width="180" height="120" as="geometry" />
        </mxCell>
        <mxCell id="l0JXnQV0ga9Xy7pXy6PY-6" value="viewAssetsReturned(&lt;br&gt;&lt;div&gt;&amp;nbsp; &amp;nbsp; uint256 meTokensBurned,&lt;/div&gt;&lt;div&gt;&amp;nbsp; &amp;nbsp; uint256 hubId,&lt;/div&gt;&lt;div&gt;&amp;nbsp; &amp;nbsp; uint256 supply,&lt;/div&gt;&lt;div&gt;&amp;nbsp; &amp;nbsp; uint256 balancePooled&lt;/div&gt;&lt;div&gt;)&lt;/div&gt;" style="text;html=1;align=left;verticalAlign=middle;resizable=0;points=[];autosize=1;strokeColor=none;fillColor=none;" vertex="1" parent="l0JXnQV0ga9Xy7pXy6PY-5">
          <mxGeometry x="10" y="29" width="170" height="90" as="geometry" />
        </mxCell>
        <mxCell id="l0JXnQV0ga9Xy7pXy6PY-7" value="" style="edgeStyle=orthogonalEdgeStyle;rounded=0;orthogonalLoop=1;jettySize=auto;html=1;fontColor=#4D4D4D;entryX=0;entryY=0.5;entryDx=0;entryDy=0;" edge="1" parent="mxPUpASC_8Y2sPtaak1J-1" target="l0JXnQV0ga9Xy7pXy6PY-11">
          <mxGeometry relative="1" as="geometry">
            <mxPoint x="589" y="563" as="sourcePoint" />
          </mxGeometry>
        </mxCell>
        <mxCell id="l0JXnQV0ga9Xy7pXy6PY-8" value="" style="edgeStyle=orthogonalEdgeStyle;rounded=0;orthogonalLoop=1;jettySize=auto;html=1;fontColor=#4D4D4D;" edge="1" parent="mxPUpASC_8Y2sPtaak1J-1" source="l0JXnQV0ga9Xy7pXy6PY-9" target="l0JXnQV0ga9Xy7pXy6PY-16">
          <mxGeometry relative="1" as="geometry" />
        </mxCell>
        <mxCell id="l0JXnQV0ga9Xy7pXy6PY-9" value="&lt;span style=&quot;background-color: rgb(255 , 255 , 255)&quot;&gt;&lt;font color=&quot;#000000&quot;&gt;is &amp;nbsp;hub reconfiguring curve?&lt;/font&gt;&lt;/span&gt;" style="rhombus;whiteSpace=wrap;html=1;fontColor=#4D4D4D;" vertex="1" parent="mxPUpASC_8Y2sPtaak1J-1">
          <mxGeometry x="536" y="523" width="80" height="80" as="geometry" />
        </mxCell>
        <mxCell id="l0JXnQV0ga9Xy7pXy6PY-10" value="" style="edgeStyle=orthogonalEdgeStyle;rounded=0;orthogonalLoop=1;jettySize=auto;html=1;fontColor=#4D4D4D;exitX=1;exitY=0.5;exitDx=0;exitDy=0;entryX=0;entryY=0.5;entryDx=0;entryDy=0;" edge="1" parent="mxPUpASC_8Y2sPtaak1J-1" source="l0JXnQV0ga9Xy7pXy6PY-11" target="l0JXnQV0ga9Xy7pXy6PY-14">
          <mxGeometry relative="1" as="geometry">
            <mxPoint x="586" y="563" as="targetPoint" />
            <mxPoint x="571.9998846593028" y="563.0588235294117" as="sourcePoint" />
          </mxGeometry>
        </mxCell>
        <mxCell id="l0JXnQV0ga9Xy7pXy6PY-11" value="N" style="ellipse;whiteSpace=wrap;html=1;fontColor=#4D4D4D;" vertex="1" parent="mxPUpASC_8Y2sPtaak1J-1">
          <mxGeometry x="641" y="548" width="30" height="30" as="geometry" />
        </mxCell>
        <mxCell id="l0JXnQV0ga9Xy7pXy6PY-12" value="" style="edgeStyle=orthogonalEdgeStyle;rounded=0;orthogonalLoop=1;jettySize=auto;html=1;fontFamily=Helvetica;fontSize=12;fontColor=#4D4D4D;entryX=0.5;entryY=0;entryDx=0;entryDy=0;" edge="1" parent="mxPUpASC_8Y2sPtaak1J-1" source="l0JXnQV0ga9Xy7pXy6PY-14" target="l0JXnQV0ga9Xy7pXy6PY-21">
          <mxGeometry relative="1" as="geometry">
            <Array as="points">
              <mxPoint x="733" y="623" />
            </Array>
          </mxGeometry>
        </mxCell>
        <mxCell id="l0JXnQV0ga9Xy7pXy6PY-13" value="" style="edgeStyle=orthogonalEdgeStyle;rounded=0;orthogonalLoop=1;jettySize=auto;html=1;fontFamily=Helvetica;fontSize=12;fontColor=#4D4D4D;" edge="1" parent="mxPUpASC_8Y2sPtaak1J-1" source="l0JXnQV0ga9Xy7pXy6PY-14" target="l0JXnQV0ga9Xy7pXy6PY-23">
          <mxGeometry relative="1" as="geometry" />
        </mxCell>
        <mxCell id="l0JXnQV0ga9Xy7pXy6PY-14" value="&lt;span style=&quot;background-color: rgb(255 , 255 , 255)&quot;&gt;&lt;font color=&quot;#000000&quot;&gt;is meToken&lt;br&gt;resubscribing?&lt;/font&gt;&lt;/span&gt;" style="rhombus;whiteSpace=wrap;html=1;fontColor=#4D4D4D;" vertex="1" parent="mxPUpASC_8Y2sPtaak1J-1">
          <mxGeometry x="693" y="523" width="80" height="80" as="geometry" />
        </mxCell>
        <mxCell id="l0JXnQV0ga9Xy7pXy6PY-15" value="" style="edgeStyle=orthogonalEdgeStyle;rounded=0;orthogonalLoop=1;jettySize=auto;html=1;fontFamily=Helvetica;fontSize=12;fontColor=#4D4D4D;entryX=0.5;entryY=0;entryDx=0;entryDy=0;" edge="1" parent="mxPUpASC_8Y2sPtaak1J-1" target="l0JXnQV0ga9Xy7pXy6PY-18">
          <mxGeometry relative="1" as="geometry">
            <mxPoint x="564" y="638" as="sourcePoint" />
            <mxPoint x="630" y="673" as="targetPoint" />
          </mxGeometry>
        </mxCell>
        <mxCell id="l0JXnQV0ga9Xy7pXy6PY-16" value="Y" style="ellipse;whiteSpace=wrap;html=1;fontColor=#4D4D4D;" vertex="1" parent="mxPUpASC_8Y2sPtaak1J-1">
          <mxGeometry x="561" y="623" width="30" height="30" as="geometry" />
        </mxCell>
        <mxCell id="l0JXnQV0ga9Xy7pXy6PY-17" value="" style="edgeStyle=orthogonalEdgeStyle;rounded=0;orthogonalLoop=1;jettySize=auto;html=1;fontFamily=Helvetica;fontSize=12;fontColor=#4D4D4D;entryX=0.5;entryY=0;entryDx=0;entryDy=0;" edge="1" parent="mxPUpASC_8Y2sPtaak1J-1" source="l0JXnQV0ga9Xy7pXy6PY-18" target="l0JXnQV0ga9Xy7pXy6PY-25">
          <mxGeometry relative="1" as="geometry" />
        </mxCell>
        <mxCell id="l0JXnQV0ga9Xy7pXy6PY-18" value="LibCurve.sol" style="swimlane;" vertex="1" parent="mxPUpASC_8Y2sPtaak1J-1">
          <mxGeometry x="565" y="673" width="180" height="120" as="geometry" />
        </mxCell>
        <mxCell id="l0JXnQV0ga9Xy7pXy6PY-19" value="viewTargetAssetsReturned(&lt;br&gt;&lt;div&gt;&amp;nbsp; &amp;nbsp; uint256 meTokensBurned,&lt;/div&gt;&lt;div&gt;&amp;nbsp; &amp;nbsp; uint256 hubId,&lt;/div&gt;&lt;div&gt;&amp;nbsp; &amp;nbsp; uint256 supply,&lt;/div&gt;&lt;div&gt;&amp;nbsp; &amp;nbsp; uint256 balancePooled&lt;/div&gt;&lt;div&gt;)&lt;/div&gt;" style="text;html=1;align=left;verticalAlign=middle;resizable=0;points=[];autosize=1;strokeColor=none;fillColor=none;" vertex="1" parent="l0JXnQV0ga9Xy7pXy6PY-18">
          <mxGeometry x="10" y="29" width="170" height="90" as="geometry" />
        </mxCell>
        <mxCell id="l0JXnQV0ga9Xy7pXy6PY-20" value="" style="edgeStyle=orthogonalEdgeStyle;rounded=0;orthogonalLoop=1;jettySize=auto;html=1;fontFamily=Helvetica;fontSize=12;fontColor=#4D4D4D;entryX=0.5;entryY=0;entryDx=0;entryDy=0;exitX=0;exitY=0.5;exitDx=0;exitDy=0;" edge="1" parent="mxPUpASC_8Y2sPtaak1J-1" source="l0JXnQV0ga9Xy7pXy6PY-21" target="l0JXnQV0ga9Xy7pXy6PY-18">
          <mxGeometry relative="1" as="geometry">
            <mxPoint x="755" y="673" as="targetPoint" />
          </mxGeometry>
        </mxCell>
        <mxCell id="l0JXnQV0ga9Xy7pXy6PY-21" value="Y" style="ellipse;whiteSpace=wrap;html=1;fontColor=#4D4D4D;" vertex="1" parent="mxPUpASC_8Y2sPtaak1J-1">
          <mxGeometry x="718" y="623" width="30" height="30" as="geometry" />
        </mxCell>
        <mxCell id="l0JXnQV0ga9Xy7pXy6PY-22" value="" style="edgeStyle=orthogonalEdgeStyle;rounded=0;orthogonalLoop=1;jettySize=auto;html=1;fontFamily=Helvetica;fontSize=12;fontColor=#4D4D4D;entryX=1;entryY=0.5;entryDx=0;entryDy=0;exitX=0.5;exitY=0.833;exitDx=0;exitDy=0;exitPerimeter=0;" edge="1" parent="mxPUpASC_8Y2sPtaak1J-1" source="l0JXnQV0ga9Xy7pXy6PY-23" target="l0JXnQV0ga9Xy7pXy6PY-27">
          <mxGeometry relative="1" as="geometry">
            <mxPoint x="866.5" y="658" as="targetPoint" />
            <Array as="points">
              <mxPoint x="813" y="984" />
            </Array>
          </mxGeometry>
        </mxCell>
        <mxCell id="l0JXnQV0ga9Xy7pXy6PY-23" value="N" style="ellipse;whiteSpace=wrap;html=1;fontColor=#4D4D4D;" vertex="1" parent="mxPUpASC_8Y2sPtaak1J-1">
          <mxGeometry x="798" y="548" width="30" height="30" as="geometry" />
        </mxCell>
        <mxCell id="l0JXnQV0ga9Xy7pXy6PY-24" value="" style="edgeStyle=orthogonalEdgeStyle;rounded=0;orthogonalLoop=1;jettySize=auto;html=1;fontFamily=Helvetica;fontSize=12;fontColor=#4D4D4D;entryX=0.5;entryY=0;entryDx=0;entryDy=0;" edge="1" parent="mxPUpASC_8Y2sPtaak1J-1" source="l0JXnQV0ga9Xy7pXy6PY-25" target="l0JXnQV0ga9Xy7pXy6PY-27">
          <mxGeometry relative="1" as="geometry">
            <mxPoint x="518" y="973" as="targetPoint" />
          </mxGeometry>
        </mxCell>
        <mxCell id="l0JXnQV0ga9Xy7pXy6PY-25" value="LibWeightedAverage.sol" style="swimlane;" vertex="1" parent="mxPUpASC_8Y2sPtaak1J-1">
          <mxGeometry x="565" y="813" width="180" height="120" as="geometry" />
        </mxCell>
        <mxCell id="l0JXnQV0ga9Xy7pXy6PY-26" value="calculate(&lt;br&gt;&lt;div&gt;&amp;nbsp; &amp;nbsp; uint256 amount,&lt;/div&gt;&lt;div&gt;&amp;nbsp; &amp;nbsp; uint256 targetAmount,&lt;/div&gt;&lt;div&gt;&amp;nbsp; &amp;nbsp; uint256 startTime,&lt;/div&gt;&lt;div&gt;&amp;nbsp; &amp;nbsp; uint256 endTime&lt;/div&gt;&lt;div&gt;)&lt;/div&gt;" style="text;html=1;align=left;verticalAlign=middle;resizable=0;points=[];autosize=1;strokeColor=none;fillColor=none;" vertex="1" parent="l0JXnQV0ga9Xy7pXy6PY-25">
          <mxGeometry x="10" y="29" width="150" height="90" as="geometry" />
        </mxCell>
        <mxCell id="l0JXnQV0ga9Xy7pXy6PY-27" value="LibCurve.sol" style="swimlane;" vertex="1" parent="mxPUpASC_8Y2sPtaak1J-1">
          <mxGeometry x="579.75" y="954" width="152.5" height="60" as="geometry" />
        </mxCell>
        <mxCell id="l0JXnQV0ga9Xy7pXy6PY-28" value="return(assetsReturned)" style="text;html=1;align=left;verticalAlign=middle;resizable=0;points=[];autosize=1;strokeColor=none;fillColor=none;" vertex="1" parent="l0JXnQV0ga9Xy7pXy6PY-27">
          <mxGeometry x="12.5" y="29" width="140" height="20" as="geometry" />
        </mxCell>
        <mxCell id="l0JXnQV0ga9Xy7pXy6PY-32" value="" style="edgeStyle=orthogonalEdgeStyle;rounded=0;orthogonalLoop=1;jettySize=auto;html=1;fontFamily=Helvetica;fontSize=12;fontColor=#4D4D4D;entryX=0.455;entryY=0.002;entryDx=0;entryDy=0;exitX=0;exitY=0.5;exitDx=0;exitDy=0;entryPerimeter=0;" edge="1" parent="mxPUpASC_8Y2sPtaak1J-1" source="l0JXnQV0ga9Xy7pXy6PY-27" target="l0JXnQV0ga9Xy7pXy6PY-47">
          <mxGeometry relative="1" as="geometry">
            <mxPoint x="516" y="993" as="sourcePoint" />
            <mxPoint x="198.99999999999977" y="1023" as="targetPoint" />
          </mxGeometry>
        </mxCell>
        <mxCell id="l0JXnQV0ga9Xy7pXy6PY-36" value="" style="edgeStyle=orthogonalEdgeStyle;rounded=0;orthogonalLoop=1;jettySize=auto;html=1;fontFamily=Helvetica;fontSize=12;fontColor=#4D4D4D;entryX=0;entryY=0.5;entryDx=0;entryDy=0;" edge="1" parent="mxPUpASC_8Y2sPtaak1J-1" source="l0JXnQV0ga9Xy7pXy6PY-37" target="l0JXnQV0ga9Xy7pXy6PY-40">
          <mxGeometry relative="1" as="geometry" />
        </mxCell>
        <mxCell id="l0JXnQV0ga9Xy7pXy6PY-37" value="FoundryFacet.sol" style="swimlane;" vertex="1" parent="mxPUpASC_8Y2sPtaak1J-1">
          <mxGeometry x="1410" y="834" width="174" height="110" as="geometry" />
        </mxCell>
        <mxCell id="l0JXnQV0ga9Xy7pXy6PY-38" value="updateBalancePooled(&lt;br&gt;&lt;div&gt;&amp;nbsp; &amp;nbsp; bool true,&lt;/div&gt;&lt;div&gt;&amp;nbsp; &amp;nbsp; address meToken,&lt;/div&gt;&lt;div&gt;&amp;nbsp; &amp;nbsp; uint256 amount&lt;/div&gt;&lt;div&gt;)&lt;/div&gt;" style="text;html=1;align=left;verticalAlign=middle;resizable=0;points=[];autosize=1;strokeColor=none;fillColor=none;" vertex="1" parent="l0JXnQV0ga9Xy7pXy6PY-37">
          <mxGeometry x="10" y="27" width="140" height="80" as="geometry" />
        </mxCell>
        <mxCell id="l0JXnQV0ga9Xy7pXy6PY-39" value="" style="edgeStyle=orthogonalEdgeStyle;rounded=0;orthogonalLoop=1;jettySize=auto;html=1;fontFamily=Helvetica;fontSize=12;fontColor=#4D4D4D;entryX=0.5;entryY=0;entryDx=0;entryDy=0;" edge="1" parent="mxPUpASC_8Y2sPtaak1J-1" source="l0JXnQV0ga9Xy7pXy6PY-40" target="l0JXnQV0ga9Xy7pXy6PY-43">
          <mxGeometry relative="1" as="geometry">
            <mxPoint x="1914" y="889" as="targetPoint" />
            <Array as="points">
              <mxPoint x="1854" y="889" />
              <mxPoint x="1854" y="974" />
              <mxPoint x="1497" y="974" />
            </Array>
          </mxGeometry>
        </mxCell>
        <mxCell id="l0JXnQV0ga9Xy7pXy6PY-40" value="LibMeToken.sol" style="swimlane;" vertex="1" parent="mxPUpASC_8Y2sPtaak1J-1">
          <mxGeometry x="1633" y="834" width="174" height="110" as="geometry" />
        </mxCell>
        <mxCell id="l0JXnQV0ga9Xy7pXy6PY-41" value="updateBalancePooled(&lt;br&gt;&lt;div&gt;&amp;nbsp; &amp;nbsp; bool true,&lt;/div&gt;&lt;div&gt;&amp;nbsp; &amp;nbsp; address meToken,&lt;/div&gt;&lt;div&gt;&amp;nbsp; &amp;nbsp; uint256 amount&lt;/div&gt;&lt;div&gt;)&lt;/div&gt;" style="text;html=1;align=left;verticalAlign=middle;resizable=0;points=[];autosize=1;strokeColor=none;fillColor=none;" vertex="1" parent="l0JXnQV0ga9Xy7pXy6PY-40">
          <mxGeometry x="10" y="27" width="140" height="80" as="geometry" />
        </mxCell>
        <mxCell id="l0JXnQV0ga9Xy7pXy6PY-42" value="" style="edgeStyle=orthogonalEdgeStyle;rounded=0;orthogonalLoop=1;jettySize=auto;html=1;fontFamily=Helvetica;fontSize=12;fontColor=#4D4D4D;entryX=0;entryY=0.5;entryDx=0;entryDy=0;" edge="1" parent="mxPUpASC_8Y2sPtaak1J-1" source="l0JXnQV0ga9Xy7pXy6PY-43" target="l0JXnQV0ga9Xy7pXy6PY-45">
          <mxGeometry relative="1" as="geometry" />
        </mxCell>
        <mxCell id="l0JXnQV0ga9Xy7pXy6PY-43" value="FoundryFacet.sol" style="swimlane;" vertex="1" parent="mxPUpASC_8Y2sPtaak1J-1">
          <mxGeometry x="1410" y="997" width="174" height="90" as="geometry" />
        </mxCell>
        <mxCell id="l0JXnQV0ga9Xy7pXy6PY-44" value="mint(&lt;br&gt;&lt;div&gt;&amp;nbsp; &amp;nbsp; address recipient,&lt;/div&gt;&lt;div&gt;&amp;nbsp; &amp;nbsp;uint256 amount&lt;/div&gt;&lt;div&gt;)&lt;/div&gt;" style="text;html=1;align=left;verticalAlign=middle;resizable=0;points=[];autosize=1;strokeColor=none;fillColor=none;" vertex="1" parent="l0JXnQV0ga9Xy7pXy6PY-43">
          <mxGeometry x="10" y="27" width="120" height="60" as="geometry" />
        </mxCell>
        <mxCell id="l0JXnQV0ga9Xy7pXy6PY-45" value="IMeToken.sol" style="swimlane;dashed=1;" vertex="1" parent="mxPUpASC_8Y2sPtaak1J-1">
          <mxGeometry x="1654" y="997" width="130" height="90" as="geometry" />
        </mxCell>
        <mxCell id="l0JXnQV0ga9Xy7pXy6PY-46" value="mint(&lt;br&gt;&lt;div&gt;&amp;nbsp; &amp;nbsp; address to,&lt;/div&gt;&lt;div&gt;&amp;nbsp; &amp;nbsp; uint256 amount&lt;/div&gt;&lt;div&gt;)&lt;/div&gt;" style="text;html=1;align=left;verticalAlign=middle;resizable=0;points=[];autosize=1;strokeColor=none;fillColor=none;" vertex="1" parent="l0JXnQV0ga9Xy7pXy6PY-45">
          <mxGeometry x="10" y="27" width="110" height="60" as="geometry" />
        </mxCell>
        <mxCell id="l0JXnQV0ga9Xy7pXy6PY-47" value="FoundryFacet.sol" style="swimlane;" vertex="1" parent="mxPUpASC_8Y2sPtaak1J-1">
          <mxGeometry x="109" y="1051" width="200" height="122.5" as="geometry" />
        </mxCell>
        <mxCell id="l0JXnQV0ga9Xy7pXy6PY-48" value="_calculateActualAssetsReturned(&lt;br&gt;&lt;div&gt;&amp;nbsp; &amp;nbsp; assets sender,&lt;/div&gt;&lt;div&gt;&amp;nbsp; &amp;nbsp; address meToken,&lt;/div&gt;&lt;div&gt;&amp;nbsp; &amp;nbsp; uint256 meTokensBurned,&lt;/div&gt;&lt;div&gt;&amp;nbsp; &amp;nbsp; uint256 rawAssetsReturned,&lt;/div&gt;&lt;div&gt;)&lt;/div&gt;" style="text;html=1;align=left;verticalAlign=middle;resizable=0;points=[];autosize=1;strokeColor=none;fillColor=none;" vertex="1" parent="l0JXnQV0ga9Xy7pXy6PY-47">
          <mxGeometry x="7" y="27.5" width="190" height="90" as="geometry" />
        </mxCell>
        <mxCell id="7FLRnjDci5-5pEVH_hQI-2" value="FoundryFacet.sol" style="swimlane;" vertex="1" parent="mxPUpASC_8Y2sPtaak1J-1">
          <mxGeometry x="980" y="834" width="174" height="120" as="geometry" />
        </mxCell>
        <mxCell id="7FLRnjDci5-5pEVH_hQI-3" value="_handleDeposit(&lt;br&gt;&lt;div&gt;&amp;nbsp; &amp;nbsp; address from,&lt;/div&gt;&lt;div&gt;&amp;nbsp; &amp;nbsp; address asset,&lt;/div&gt;&lt;div&gt;&amp;nbsp; &amp;nbsp; uint256 amount,&lt;/div&gt;&lt;div&gt;&amp;nbsp; &amp;nbsp; uint256 fee&lt;/div&gt;&lt;div&gt;)&lt;/div&gt;" style="text;html=1;align=left;verticalAlign=middle;resizable=0;points=[];autosize=1;strokeColor=none;fillColor=none;" vertex="1" parent="7FLRnjDci5-5pEVH_hQI-2">
          <mxGeometry x="10" y="27" width="110" height="90" as="geometry" />
        </mxCell>
        <mxCell id="7FLRnjDci5-5pEVH_hQI-4" value="IVault.sol" style="swimlane;dashed=1;" vertex="1" parent="mxPUpASC_8Y2sPtaak1J-1">
          <mxGeometry x="1200" y="834" width="132" height="120" as="geometry" />
        </mxCell>
        <mxCell id="7FLRnjDci5-5pEVH_hQI-5" value="_handleDeposit(&lt;br&gt;&lt;div&gt;&amp;nbsp; &amp;nbsp; address from,&lt;/div&gt;&lt;div&gt;&amp;nbsp; &amp;nbsp; address asset,&lt;/div&gt;&lt;div&gt;&amp;nbsp; &amp;nbsp; uint256 amount,&lt;/div&gt;&lt;div&gt;&amp;nbsp; &amp;nbsp; uint256 fee&lt;/div&gt;&lt;div&gt;)&lt;/div&gt;" style="text;html=1;align=left;verticalAlign=middle;resizable=0;points=[];autosize=1;strokeColor=none;fillColor=none;" vertex="1" parent="7FLRnjDci5-5pEVH_hQI-4">
          <mxGeometry x="10" y="27" width="110" height="90" as="geometry" />
        </mxCell>
        <mxCell id="7FLRnjDci5-5pEVH_hQI-6" value="" style="edgeStyle=orthogonalEdgeStyle;rounded=0;orthogonalLoop=1;jettySize=auto;html=1;fontFamily=Helvetica;fontSize=12;fontColor=#4D4D4D;" edge="1" parent="mxPUpASC_8Y2sPtaak1J-1" target="7FLRnjDci5-5pEVH_hQI-9">
          <mxGeometry relative="1" as="geometry">
            <Array as="points">
              <mxPoint x="669" y="1109" />
              <mxPoint x="669" y="1109" />
            </Array>
            <mxPoint x="667" y="1109" as="sourcePoint" />
          </mxGeometry>
        </mxCell>
        <mxCell id="7FLRnjDci5-5pEVH_hQI-7" value="" style="edgeStyle=orthogonalEdgeStyle;rounded=0;orthogonalLoop=1;jettySize=auto;html=1;fontColor=#4D4D4D;entryX=0;entryY=0.5;entryDx=0;entryDy=0;" edge="1" parent="mxPUpASC_8Y2sPtaak1J-1" target="7FLRnjDci5-5pEVH_hQI-11">
          <mxGeometry relative="1" as="geometry">
            <mxPoint x="736" y="1109" as="sourcePoint" />
          </mxGeometry>
        </mxCell>
        <mxCell id="7FLRnjDci5-5pEVH_hQI-8" value="" style="edgeStyle=orthogonalEdgeStyle;rounded=0;orthogonalLoop=1;jettySize=auto;html=1;fontColor=#4D4D4D;" edge="1" parent="mxPUpASC_8Y2sPtaak1J-1" source="7FLRnjDci5-5pEVH_hQI-9" target="7FLRnjDci5-5pEVH_hQI-16">
          <mxGeometry relative="1" as="geometry" />
        </mxCell>
        <mxCell id="7FLRnjDci5-5pEVH_hQI-9" value="&lt;span style=&quot;background-color: rgb(255 , 255 , 255)&quot;&gt;&lt;font color=&quot;#000000&quot;&gt;is &amp;nbsp;hub reconfiguring refund&lt;br&gt;ratio?&lt;/font&gt;&lt;/span&gt;" style="rhombus;whiteSpace=wrap;html=1;fontColor=#4D4D4D;" vertex="1" parent="mxPUpASC_8Y2sPtaak1J-1">
          <mxGeometry x="683" y="1069" width="80" height="80" as="geometry" />
        </mxCell>
        <mxCell id="7FLRnjDci5-5pEVH_hQI-10" value="" style="edgeStyle=orthogonalEdgeStyle;rounded=0;orthogonalLoop=1;jettySize=auto;html=1;fontColor=#4D4D4D;exitX=1;exitY=0.5;exitDx=0;exitDy=0;entryX=0;entryY=0.5;entryDx=0;entryDy=0;" edge="1" parent="mxPUpASC_8Y2sPtaak1J-1" source="7FLRnjDci5-5pEVH_hQI-11" target="7FLRnjDci5-5pEVH_hQI-14">
          <mxGeometry relative="1" as="geometry">
            <mxPoint x="733" y="1109" as="targetPoint" />
            <mxPoint x="718.9998846593028" y="1109.0588235294117" as="sourcePoint" />
          </mxGeometry>
        </mxCell>
        <mxCell id="7FLRnjDci5-5pEVH_hQI-11" value="N" style="ellipse;whiteSpace=wrap;html=1;fontColor=#4D4D4D;" vertex="1" parent="mxPUpASC_8Y2sPtaak1J-1">
          <mxGeometry x="788" y="1094" width="30" height="30" as="geometry" />
        </mxCell>
        <mxCell id="7FLRnjDci5-5pEVH_hQI-12" value="" style="edgeStyle=orthogonalEdgeStyle;rounded=0;orthogonalLoop=1;jettySize=auto;html=1;fontFamily=Helvetica;fontSize=12;fontColor=#4D4D4D;entryX=0.5;entryY=0;entryDx=0;entryDy=0;" edge="1" parent="mxPUpASC_8Y2sPtaak1J-1" source="7FLRnjDci5-5pEVH_hQI-14" target="7FLRnjDci5-5pEVH_hQI-21">
          <mxGeometry relative="1" as="geometry">
            <Array as="points">
              <mxPoint x="880" y="1169" />
            </Array>
          </mxGeometry>
        </mxCell>
        <mxCell id="7FLRnjDci5-5pEVH_hQI-13" value="" style="edgeStyle=orthogonalEdgeStyle;rounded=0;orthogonalLoop=1;jettySize=auto;html=1;fontFamily=Helvetica;fontSize=12;fontColor=#4D4D4D;" edge="1" parent="mxPUpASC_8Y2sPtaak1J-1" source="7FLRnjDci5-5pEVH_hQI-14" target="7FLRnjDci5-5pEVH_hQI-23">
          <mxGeometry relative="1" as="geometry" />
        </mxCell>
        <mxCell id="7FLRnjDci5-5pEVH_hQI-14" value="&lt;span style=&quot;background-color: rgb(255 , 255 , 255)&quot;&gt;&lt;font color=&quot;#000000&quot;&gt;is meToken&lt;br&gt;resubscribing?&lt;/font&gt;&lt;/span&gt;" style="rhombus;whiteSpace=wrap;html=1;fontColor=#4D4D4D;" vertex="1" parent="mxPUpASC_8Y2sPtaak1J-1">
          <mxGeometry x="840" y="1069" width="80" height="80" as="geometry" />
        </mxCell>
        <mxCell id="7FLRnjDci5-5pEVH_hQI-15" value="" style="edgeStyle=orthogonalEdgeStyle;rounded=0;orthogonalLoop=1;jettySize=auto;html=1;fontFamily=Helvetica;fontSize=12;fontColor=#4D4D4D;entryX=0.5;entryY=0;entryDx=0;entryDy=0;" edge="1" parent="mxPUpASC_8Y2sPtaak1J-1" target="7FLRnjDci5-5pEVH_hQI-18">
          <mxGeometry relative="1" as="geometry">
            <mxPoint x="711" y="1184" as="sourcePoint" />
            <mxPoint x="777" y="1219" as="targetPoint" />
          </mxGeometry>
        </mxCell>
        <mxCell id="7FLRnjDci5-5pEVH_hQI-16" value="Y" style="ellipse;whiteSpace=wrap;html=1;fontColor=#4D4D4D;" vertex="1" parent="mxPUpASC_8Y2sPtaak1J-1">
          <mxGeometry x="708" y="1169" width="30" height="30" as="geometry" />
        </mxCell>
        <mxCell id="7FLRnjDci5-5pEVH_hQI-17" value="" style="edgeStyle=orthogonalEdgeStyle;rounded=0;orthogonalLoop=1;jettySize=auto;html=1;fontFamily=Helvetica;fontSize=12;fontColor=#4D4D4D;entryX=0.5;entryY=0;entryDx=0;entryDy=0;" edge="1" parent="mxPUpASC_8Y2sPtaak1J-1" source="7FLRnjDci5-5pEVH_hQI-18" target="7FLRnjDci5-5pEVH_hQI-25">
          <mxGeometry relative="1" as="geometry" />
        </mxCell>
        <mxCell id="7FLRnjDci5-5pEVH_hQI-18" value="LibCurve.sol" style="swimlane;" vertex="1" parent="mxPUpASC_8Y2sPtaak1J-1">
          <mxGeometry x="712" y="1219" width="210" height="120" as="geometry" />
        </mxCell>
        <mxCell id="7FLRnjDci5-5pEVH_hQI-19" value="actualAssetsReturned =&lt;br&gt;&amp;nbsp; &amp;nbsp; (rawAssetsReturned&lt;br&gt;&amp;nbsp; &amp;nbsp; * libWeightedAverage.calculate)&lt;br&gt;&amp;nbsp; &amp;nbsp; / s.MAX_REFUND_RATIO&lt;br&gt;)" style="text;html=1;align=left;verticalAlign=middle;resizable=0;points=[];autosize=1;strokeColor=none;fillColor=none;" vertex="1" parent="7FLRnjDci5-5pEVH_hQI-18">
          <mxGeometry x="10" y="34" width="200" height="80" as="geometry" />
        </mxCell>
        <mxCell id="7FLRnjDci5-5pEVH_hQI-20" value="" style="edgeStyle=orthogonalEdgeStyle;rounded=0;orthogonalLoop=1;jettySize=auto;html=1;fontFamily=Helvetica;fontSize=12;fontColor=#4D4D4D;entryX=0.5;entryY=0;entryDx=0;entryDy=0;exitX=0;exitY=0.5;exitDx=0;exitDy=0;" edge="1" parent="mxPUpASC_8Y2sPtaak1J-1" source="7FLRnjDci5-5pEVH_hQI-21" target="7FLRnjDci5-5pEVH_hQI-18">
          <mxGeometry relative="1" as="geometry">
            <mxPoint x="902" y="1219" as="targetPoint" />
          </mxGeometry>
        </mxCell>
        <mxCell id="7FLRnjDci5-5pEVH_hQI-21" value="Y" style="ellipse;whiteSpace=wrap;html=1;fontColor=#4D4D4D;" vertex="1" parent="mxPUpASC_8Y2sPtaak1J-1">
          <mxGeometry x="865" y="1169" width="30" height="30" as="geometry" />
        </mxCell>
        <mxCell id="7FLRnjDci5-5pEVH_hQI-22" value="" style="edgeStyle=orthogonalEdgeStyle;rounded=0;orthogonalLoop=1;jettySize=auto;html=1;fontFamily=Helvetica;fontSize=12;fontColor=#4D4D4D;exitX=0.5;exitY=0.833;exitDx=0;exitDy=0;exitPerimeter=0;" edge="1" parent="mxPUpASC_8Y2sPtaak1J-1">
          <mxGeometry relative="1" as="geometry">
            <mxPoint x="519" y="1500" as="targetPoint" />
            <Array as="points">
              <mxPoint x="959" y="1500" />
              <mxPoint x="579" y="1500" />
            </Array>
            <mxPoint x="959" y="1118.99" as="sourcePoint" />
          </mxGeometry>
        </mxCell>
        <mxCell id="7FLRnjDci5-5pEVH_hQI-23" value="N" style="ellipse;whiteSpace=wrap;html=1;fontColor=#4D4D4D;" vertex="1" parent="mxPUpASC_8Y2sPtaak1J-1">
          <mxGeometry x="945" y="1094" width="30" height="30" as="geometry" />
        </mxCell>
        <mxCell id="7FLRnjDci5-5pEVH_hQI-24" value="" style="edgeStyle=orthogonalEdgeStyle;rounded=0;orthogonalLoop=1;jettySize=auto;html=1;fontFamily=Helvetica;fontSize=12;fontColor=#4D4D4D;entryX=1;entryY=0.5;entryDx=0;entryDy=0;" edge="1" parent="mxPUpASC_8Y2sPtaak1J-1" source="7FLRnjDci5-5pEVH_hQI-25" target="7FLRnjDci5-5pEVH_hQI-27">
          <mxGeometry relative="1" as="geometry">
            <mxPoint x="580" y="1520" as="targetPoint" />
            <Array as="points">
              <mxPoint x="802" y="1500" />
            </Array>
          </mxGeometry>
        </mxCell>
        <mxCell id="7FLRnjDci5-5pEVH_hQI-25" value="LibWeightedAverage.sol" style="swimlane;" vertex="1" parent="mxPUpASC_8Y2sPtaak1J-1">
          <mxGeometry x="712" y="1359" width="208" height="120" as="geometry" />
        </mxCell>
        <mxCell id="7FLRnjDci5-5pEVH_hQI-26" value="calculate(&lt;br&gt;&lt;div&gt;&amp;nbsp; &amp;nbsp; uint256 refundRatio,&lt;/div&gt;&lt;div&gt;&amp;nbsp; &amp;nbsp; uint256 targetRefundRatio,&lt;/div&gt;&lt;div&gt;&amp;nbsp; &amp;nbsp; uint256 startTime,&lt;/div&gt;&lt;div&gt;&amp;nbsp; &amp;nbsp; uint256 endTime&lt;/div&gt;&lt;div&gt;)&lt;/div&gt;" style="text;html=1;align=left;verticalAlign=middle;resizable=0;points=[];autosize=1;strokeColor=none;fillColor=none;" vertex="1" parent="7FLRnjDci5-5pEVH_hQI-25">
          <mxGeometry x="10" y="29" width="170" height="90" as="geometry" />
        </mxCell>
        <mxCell id="7FLRnjDci5-5pEVH_hQI-29" value="" style="edgeStyle=orthogonalEdgeStyle;rounded=0;orthogonalLoop=1;jettySize=auto;html=1;fontFamily=Helvetica;fontSize=12;fontColor=#4D4D4D;" edge="1" parent="mxPUpASC_8Y2sPtaak1J-1" target="7FLRnjDci5-5pEVH_hQI-32">
          <mxGeometry relative="1" as="geometry">
            <Array as="points">
              <mxPoint x="312" y="1108" />
              <mxPoint x="312" y="1108" />
            </Array>
            <mxPoint x="310" y="1108" as="sourcePoint" />
          </mxGeometry>
        </mxCell>
        <mxCell id="7FLRnjDci5-5pEVH_hQI-30" value="" style="edgeStyle=orthogonalEdgeStyle;rounded=0;orthogonalLoop=1;jettySize=auto;html=1;fontColor=#4D4D4D;entryX=0;entryY=0.5;entryDx=0;entryDy=0;" edge="1" parent="mxPUpASC_8Y2sPtaak1J-1" target="7FLRnjDci5-5pEVH_hQI-33">
          <mxGeometry relative="1" as="geometry">
            <mxPoint x="387" y="1109" as="sourcePoint" />
          </mxGeometry>
        </mxCell>
        <mxCell id="7FLRnjDci5-5pEVH_hQI-31" value="" style="edgeStyle=orthogonalEdgeStyle;rounded=0;orthogonalLoop=1;jettySize=auto;html=1;fontColor=#4D4D4D;" edge="1" parent="mxPUpASC_8Y2sPtaak1J-1" source="7FLRnjDci5-5pEVH_hQI-32" target="7FLRnjDci5-5pEVH_hQI-34">
          <mxGeometry relative="1" as="geometry" />
        </mxCell>
        <mxCell id="7FLRnjDci5-5pEVH_hQI-32" value="&lt;span style=&quot;background-color: rgb(255 , 255 , 255)&quot;&gt;&lt;font color=&quot;#000000&quot;&gt;is msg.sender owner?&lt;/font&gt;&lt;/span&gt;" style="rhombus;whiteSpace=wrap;html=1;fontColor=#4D4D4D;" vertex="1" parent="mxPUpASC_8Y2sPtaak1J-1">
          <mxGeometry x="334" y="1069" width="80" height="80" as="geometry" />
        </mxCell>
        <mxCell id="7FLRnjDci5-5pEVH_hQI-47" value="" style="edgeStyle=orthogonalEdgeStyle;rounded=0;orthogonalLoop=1;jettySize=auto;html=1;" edge="1" parent="mxPUpASC_8Y2sPtaak1J-1" source="7FLRnjDci5-5pEVH_hQI-33">
          <mxGeometry relative="1" as="geometry">
            <mxPoint x="487" y="1110" as="targetPoint" />
            <Array as="points">
              <mxPoint x="467" y="1110" />
              <mxPoint x="467" y="1110" />
            </Array>
          </mxGeometry>
        </mxCell>
        <mxCell id="7FLRnjDci5-5pEVH_hQI-33" value="N" style="ellipse;whiteSpace=wrap;html=1;fontColor=#4D4D4D;" vertex="1" parent="mxPUpASC_8Y2sPtaak1J-1">
          <mxGeometry x="436" y="1094" width="30" height="30" as="geometry" />
        </mxCell>
        <mxCell id="7FLRnjDci5-5pEVH_hQI-57" value="" style="edgeStyle=orthogonalEdgeStyle;rounded=0;orthogonalLoop=1;jettySize=auto;html=1;entryX=0.5;entryY=0;entryDx=0;entryDy=0;" edge="1" parent="mxPUpASC_8Y2sPtaak1J-1" source="7FLRnjDci5-5pEVH_hQI-34" target="7FLRnjDci5-5pEVH_hQI-55">
          <mxGeometry relative="1" as="geometry" />
        </mxCell>
        <mxCell id="7FLRnjDci5-5pEVH_hQI-34" value="Y" style="ellipse;whiteSpace=wrap;html=1;fontColor=#4D4D4D;" vertex="1" parent="mxPUpASC_8Y2sPtaak1J-1">
          <mxGeometry x="359" y="1189" width="30" height="30" as="geometry" />
        </mxCell>
        <mxCell id="7FLRnjDci5-5pEVH_hQI-35" value="LibCurve.sol" style="swimlane;" vertex="1" parent="mxPUpASC_8Y2sPtaak1J-1">
          <mxGeometry x="487" y="1051" width="180" height="120" as="geometry" />
        </mxCell>
        <mxCell id="7FLRnjDci5-5pEVH_hQI-36" value="actualAssetsReturned =&lt;br&gt;&amp;nbsp; &amp;nbsp; (rawAssetsReturned&lt;br&gt;&amp;nbsp; &amp;nbsp; * hubInfo.RefundRatio)&lt;br&gt;&amp;nbsp; &amp;nbsp; / s.MAX_REFUND_RATIO&lt;br&gt;)" style="text;html=1;align=left;verticalAlign=middle;resizable=0;points=[];autosize=1;strokeColor=none;fillColor=none;" vertex="1" parent="7FLRnjDci5-5pEVH_hQI-35">
          <mxGeometry x="10" y="34" width="170" height="80" as="geometry" />
        </mxCell>
        <mxCell id="7FLRnjDci5-5pEVH_hQI-55" value="LibCurve.sol" style="swimlane;" vertex="1" parent="mxPUpASC_8Y2sPtaak1J-1">
          <mxGeometry x="334" y="1270" width="220" height="151" as="geometry" />
        </mxCell>
        <mxCell id="7FLRnjDci5-5pEVH_hQI-56" value="actualAssetsReturned =&lt;br&gt;&amp;nbsp; &amp;nbsp; rawAssetsReturned&lt;br&gt;&amp;nbsp; &amp;nbsp; + (((s.PRECISION&lt;br&gt;&amp;nbsp; &amp;nbsp; &amp;nbsp; &amp;nbsp; * meTokensBurned)&lt;br&gt;&amp;nbsp; &amp;nbsp; &amp;nbsp; &amp;nbsp; / meToken.totalSupply)&lt;br&gt;&amp;nbsp; &amp;nbsp; &amp;nbsp; &amp;nbsp; * meTokenInfo.BalanceLocked)&lt;br&gt;&amp;nbsp; &amp;nbsp; / s.PRECISION&lt;br&gt;)" style="text;html=1;align=left;verticalAlign=middle;resizable=0;points=[];autosize=1;strokeColor=none;fillColor=none;" vertex="1" parent="7FLRnjDci5-5pEVH_hQI-55">
          <mxGeometry x="6" y="28" width="210" height="120" as="geometry" />
        </mxCell>
        <mxCell id="7FLRnjDci5-5pEVH_hQI-27" value="LibCurve.sol" style="swimlane;" vertex="1" parent="mxPUpASC_8Y2sPtaak1J-1">
          <mxGeometry x="336" y="1470" width="183.25" height="60" as="geometry" />
        </mxCell>
        <mxCell id="7FLRnjDci5-5pEVH_hQI-28" value="return(actualAssetsReturned)" style="text;html=1;align=left;verticalAlign=middle;resizable=0;points=[];autosize=1;strokeColor=none;fillColor=none;" vertex="1" parent="7FLRnjDci5-5pEVH_hQI-27">
          <mxGeometry x="12.5" y="29" width="170" height="20" as="geometry" />
        </mxCell>
        <mxCell id="7FLRnjDci5-5pEVH_hQI-63" value="FoundryFacet.sol" style="swimlane;" vertex="1" parent="mxPUpASC_8Y2sPtaak1J-1">
          <mxGeometry x="109" y="1470" width="200" height="122.5" as="geometry" />
        </mxCell>
        <mxCell id="7FLRnjDci5-5pEVH_hQI-64" value="_calculateActualAssetsReturned(&lt;br&gt;&lt;div&gt;&amp;nbsp; &amp;nbsp; assets sender,&lt;/div&gt;&lt;div&gt;&amp;nbsp; &amp;nbsp; address meToken,&lt;/div&gt;&lt;div&gt;&amp;nbsp; &amp;nbsp; uint256 meTokensBurned,&lt;/div&gt;&lt;div&gt;&amp;nbsp; &amp;nbsp; uint256 rawAssetsReturned,&lt;/div&gt;&lt;div&gt;)&lt;/div&gt;" style="text;html=1;align=left;verticalAlign=middle;resizable=0;points=[];autosize=1;strokeColor=none;fillColor=none;" vertex="1" parent="7FLRnjDci5-5pEVH_hQI-63">
          <mxGeometry x="7" y="27.5" width="190" height="90" as="geometry" />
        </mxCell>
      </root>
    </mxGraphModel>
  </diagram>
</mxfile>
